<svg width="120" height="38" viewBox="0 0 120 38" fill="none" xmlns="http://www.w3.org/2000/svg">
<path fill-rule="evenodd" clip-rule="evenodd" d="M4.04695 32.7384H2.58517V34.6876H1.58905V32.7384H0.148438V37.7606H1.58905V35.6837H2.58517V37.7606H4.04695V32.7384Z" fill="#6D6E70"/>
<path d="M5.12814 37.7606H6.61109V32.7384H5.12814V37.7606Z" fill="#6D6E70"/>
<path fill-rule="evenodd" clip-rule="evenodd" d="M11.6761 35.0699H9.83204V36.066H10.3195V36.744C10.2348 36.8081 10.0443 36.8703 9.7897 36.8703C9.34521 36.8703 9.11173 36.4258 9.11173 35.2392C9.11173 34.0314 9.42987 33.6293 9.7679 33.6293C10.0014 33.6293 10.1072 33.8198 10.213 34.4977L11.6543 34.3913C11.4208 33.3111 10.764 32.6537 9.7679 32.6537C8.30676 32.6537 7.62814 33.5446 7.62814 35.1757C7.62814 36.7658 8.09445 37.8466 9.7679 37.8466C10.6582 37.8466 11.3785 37.4219 11.6755 36.9986L11.6761 35.0699ZM16.5072 32.7384H15.0454V34.6876H14.0493V32.7384H12.5869V37.7606H14.0493V35.6837H15.0454V37.7606H16.5072V32.7384ZM21.4448 37.7606V36.1083H21.8258C22.9913 36.1083 23.7545 35.5785 23.7545 34.3906C23.7545 33.3535 23.1606 32.7384 21.7835 32.7384H20.0036V37.7606H21.4448ZM21.4448 35.1109V33.7345H21.7835C22.0593 33.7345 22.271 33.8621 22.271 34.3906C22.271 34.9634 22.1016 35.1109 21.7623 35.1109H21.4448ZM26.0431 34.7088V33.7345H27.5896V32.7384H24.5807V37.7606H27.6107V36.7863H26.0431V35.6837H27.1656V34.7088H26.0431ZM31.3405 35.7472C31.8068 35.5997 32.2513 35.2174 32.2513 34.3707C32.2513 32.993 31.0859 32.7384 30.1963 32.7384H28.501V37.7606H29.9416V35.9807H30.1116L30.8742 37.7606H32.5272L31.3405 35.7472ZM29.9416 35.0269V33.7338H30.2386C30.5991 33.7338 30.7684 33.9667 30.7684 34.39C30.7684 34.8358 30.5984 35.0263 30.2598 35.0263L29.9416 35.0269ZM34.6669 37.7606V35.7472H35.7477V34.7517H34.6669V33.7345H36.1499V32.7384H33.2051V37.7606H34.6669ZM36.9131 35.2386C36.9131 36.9973 37.6552 37.8453 39.0324 37.8453C40.4095 37.8453 41.1516 36.9973 41.1516 35.2386C41.1516 33.501 40.4095 32.653 39.0324 32.653C37.6552 32.653 36.9131 33.501 36.9131 35.2386ZM39.0324 33.6293C39.3928 33.6293 39.668 33.9673 39.668 35.2604C39.668 36.5105 39.3928 36.8703 39.0324 36.8703C38.6931 36.8703 38.3967 36.5105 38.3967 35.2604C38.3967 33.9673 38.6931 33.6293 39.0324 33.6293ZM44.8596 35.7472C45.3259 35.5997 45.7704 35.2174 45.7704 34.3707C45.7704 32.993 44.6261 32.7384 43.7147 32.7384H42.0194V37.7606H43.4818V35.9807H43.6512L44.3926 37.7606H46.0667L44.8596 35.7472ZM43.4613 35.0269V33.7338H43.7576C44.1393 33.7338 44.2875 33.9667 44.2875 34.39C44.2875 34.8358 44.1181 35.0263 43.7788 35.0263L43.4613 35.0269ZM49.3521 36.0442C49.2674 35.1751 49.1397 34.4118 48.8222 32.7384H46.6819V37.7606H47.9538C47.9538 35.9377 47.932 34.7088 47.9114 33.9673H47.9538C48.0596 34.7088 48.3136 35.9377 48.6741 37.7606H50.0512C50.4328 35.8967 50.6445 34.7088 50.7715 33.9673H50.7927C50.7927 34.7088 50.7715 35.9178 50.7715 37.7606H52.0434V32.7384H49.903C49.5637 34.3906 49.4579 35.1751 49.3732 36.0442H49.3521ZM55.3063 36.658L55.4545 37.7606H56.938L55.8149 32.7384H53.8445L52.7214 37.7606H54.2043L54.3525 36.658H55.3063ZM55.1581 35.6837H54.5013L54.6495 34.6241C54.6918 34.3284 54.7553 34.0314 54.7976 33.5869H54.8611C54.9041 34.0103 54.9676 34.3284 55.01 34.6241L55.1581 35.6837ZM60.4767 35.8742C60.3497 35.3669 60.0527 34.3072 59.5236 32.7384H57.6584V37.7606H58.9514C58.9514 36.1924 58.9085 35.1321 58.8873 34.6235H58.9296C59.0361 35.1321 59.3324 36.1917 59.8622 37.7606H61.7268V32.7384H60.4344C60.4344 34.3066 60.4767 35.3669 60.5191 35.8742H60.4767ZM64.6927 35.8114C64.6722 36.574 64.6081 36.8485 64.3759 36.8485C64.1636 36.8485 64.0366 36.4675 64.0366 35.2597C64.0366 34.052 64.1636 33.6498 64.397 33.6498C64.5875 33.6498 64.651 33.9032 64.6934 34.6459L66.05 34.6235C66.0083 33.0135 65.1385 32.653 64.397 32.653C63.8467 32.653 63.4221 32.8237 63.1264 33.1418C62.7236 33.5651 62.5536 34.2643 62.5536 35.1751C62.5536 36.3399 62.7864 36.998 63.1476 37.4001C63.4856 37.7394 63.9519 37.8459 64.397 37.8459C65.1173 37.8459 66.0288 37.4425 66.0929 35.8312L64.6927 35.8114ZM68.3597 34.7088V33.7345H69.9055V32.7384H66.8973V37.7606H69.9485V36.7863H68.3597V35.6837H69.4822V34.7088H68.3597ZM77.2805 32.7384H75.8187V34.6876H74.8219V32.7384H73.3601V37.7606H74.8219V35.6837H75.8187V37.7606H77.2805V32.7384ZM80.5645 36.658L80.7127 37.7606H82.1956L81.0725 32.7384H79.1021L77.979 37.7606H79.4619L79.6101 36.658H80.5645ZM80.4381 35.6837H79.7589L79.9077 34.6241C79.9494 34.3284 80.0135 34.0314 80.0552 33.5869H80.1194C80.161 34.0103 80.2252 34.3284 80.2669 34.6241L80.4381 35.6837ZM85.8831 34.0738C85.8619 33.247 85.4168 32.653 84.3783 32.653C83.8703 32.653 83.4887 32.7807 83.2347 33.0135C82.9377 33.2464 82.8114 33.5863 82.8114 33.9667C82.8114 34.39 82.9589 34.7511 83.107 34.9628C83.2777 35.2168 83.5522 35.4926 83.7857 35.6831C84.0185 35.8537 84.1673 35.9801 84.2731 36.1077C84.379 36.2341 84.4643 36.3611 84.4643 36.574C84.4643 36.6369 84.4431 36.7215 84.422 36.7645C84.4014 36.8068 84.3366 36.8485 84.2738 36.8485C84.1263 36.8485 84.0833 36.6792 84.0621 36.3399H82.685C82.7062 37.2308 83.1725 37.8459 84.3373 37.8459C84.9312 37.8459 85.3129 37.6541 85.5669 37.4001C85.8427 37.1044 85.9485 36.701 85.9485 36.3617C85.9485 35.8967 85.7368 35.5574 85.5669 35.3245C85.3969 35.1116 85.1852 34.9422 84.9729 34.7517C84.7824 34.6029 84.6978 34.5401 84.5073 34.3707C84.3155 34.2001 84.2526 34.0314 84.2526 33.8621C84.2526 33.8198 84.2526 33.7345 84.295 33.7133C84.305 33.6939 84.3203 33.6776 84.3391 33.6665C84.358 33.6554 84.3796 33.6498 84.4014 33.6504C84.5284 33.6504 84.5708 33.798 84.5708 34.0738H85.8831ZM91.5628 36.658L91.7321 37.7606H93.2157L92.0926 32.7384H90.1004L88.9984 37.7606H90.4814L90.6295 36.658H91.5628ZM91.4358 35.6837H90.7578L90.9272 34.6241L91.0747 33.5869H91.1388C91.1812 34.0103 91.2235 34.3284 91.2863 34.6241L91.4358 35.6837ZM99.297 35.8742C99.1911 35.3669 98.8736 34.3072 98.3438 32.7384H96.4792V37.7606H97.7723C97.7723 36.1924 97.7306 35.1321 97.7088 34.6235H97.7505C97.8563 35.1321 98.1527 36.1917 98.6825 37.7606H100.548V32.7384H99.2546C99.2546 34.3066 99.2963 35.3669 99.3393 35.8742H99.297ZM103.853 36.658L104 37.7606H105.484L104.361 32.7384H102.39L101.267 37.7606H102.75L102.898 36.658H103.853ZM103.705 35.6837H103.048L103.196 34.6241C103.238 34.3284 103.302 34.0314 103.344 33.5869H103.408C103.451 34.0103 103.514 34.3284 103.557 34.6241L103.705 35.6837ZM108.833 36.0442C108.748 35.1751 108.621 34.4118 108.303 32.7384H106.163V37.7606H107.434C107.434 35.9377 107.434 34.7088 107.413 33.9673H107.434C107.56 34.7088 107.794 35.9377 108.155 37.7606H109.553C109.935 35.8967 110.146 34.7088 110.252 33.9673H110.295C110.263 35.2315 110.249 36.496 110.252 37.7606H111.524V32.7384H109.405C109.066 34.3906 108.938 35.1751 108.854 36.0442H108.833ZM113.94 34.7088V33.7345H115.486V32.7384H112.477V37.7606H115.507V36.7863H113.94V35.6837H115.063V34.7088H113.94ZM117.16 32.7595H116.037V33.12H116.334V34.2213H116.863V33.12H117.16V32.7595ZM118.262 33.6293C118.22 33.4375 118.198 33.29 118.156 33.163L118.072 32.7595H117.245V34.2213H117.732V33.755V33.204C117.775 33.4157 117.817 33.5863 117.859 33.755L117.966 34.2213H118.537L118.644 33.755C118.693 33.5743 118.729 33.3901 118.75 33.204H118.771V34.2213H119.258V32.7595H118.453L118.368 33.163C118.326 33.2893 118.305 33.4375 118.262 33.6293Z" fill="#6D6E70"/>
<path fill-rule="evenodd" clip-rule="evenodd" d="M15.215 16.9519L19.7921 10.0862L18.5631 16.9519H15.215ZM9.23891 16.9519H2.58554L4.08965 22.334H5.5944L0 30.3016H6.54818L11.8033 22.334H17.8845L16.6556 30.3228H26.128L30.4934 0H21.0005L9.23891 16.9519Z" fill="#A5333A"/>
<path fill-rule="evenodd" clip-rule="evenodd" d="M65.9649 24.2197C65.9649 23.7323 66.4306 22.3981 67.1939 21.5502C67.639 21.0204 68.1258 20.7234 68.9314 20.7234C69.8211 20.7234 70.3304 21.0204 71.1559 21.9735C70.1392 23.5636 68.4228 25.1729 66.9187 25.1729C66.4094 25.1729 65.9649 24.8349 65.9649 24.2197ZM31.8693 22.334C32.5685 22.334 32.9283 22.4603 32.9283 23.0543C32.9283 23.1819 32.9071 23.3513 32.8436 23.6053L31.1272 28.5211C30.7885 29.5383 30.6404 29.5807 30.6404 29.8353C30.6404 30.2798 31.0002 30.3228 31.6782 30.3228H36.2765C37.3149 30.3228 37.3149 30.2805 37.8871 28.861L39.3918 24.4327C39.8363 23.0761 40.2815 22.7362 41.1082 22.7362C41.6162 22.7362 41.9979 22.969 41.9979 23.4154L40.4931 28.5217C40.1545 29.6031 40.0698 29.6031 40.0698 29.836C40.0698 30.2804 40.4085 30.3234 41.1082 30.3234H45.6847C46.8502 30.3234 46.872 30.1541 47.2953 28.8616L48.8212 24.4333C49.2664 23.0767 49.7109 22.7368 50.5376 22.7368C51.0463 22.7368 51.385 22.9696 51.385 23.4161L49.8808 28.5223C49.5415 29.6038 49.478 29.6038 49.478 29.8366C49.478 30.2811 49.8173 30.3241 50.4953 30.3241H55.1994C56.1532 30.3241 56.5342 30.3241 56.5342 29.3696C56.5342 29.0951 56.4707 28.8822 56.2591 28.48L57.7843 23.5001C58.3994 21.6361 58.6111 20.9582 58.6111 20.1102C58.6111 17.9275 56.8735 16.4869 54.288 16.4869C52.7415 16.4869 51.5973 17.0167 50.156 18.034C48.7577 16.8685 47.4653 16.3175 45.6219 16.3175C43.6931 16.3175 42.3372 16.9108 41.1294 17.864C40.8536 17.186 40.6625 16.932 40.0698 16.932H27.017V17.4195L27.5045 17.61L27.2928 21.6361H26.8477L26.7207 22.3353H31.8693V22.334ZM69.0161 29.2632C68.8044 29.7077 68.8045 29.8141 68.8045 29.8783C68.8045 30.2593 69.1008 30.3228 69.6947 30.3228H74.8017C75.4578 30.3228 75.6913 30.09 75.6913 29.75C75.6913 29.5383 75.5855 29.3055 75.5431 28.818L78.8066 18.8158C79.1036 17.8839 79.1671 17.6081 79.1671 17.4387C79.1671 16.9724 78.8278 16.9301 78.1498 16.9301H73.9749C73.0217 16.9301 72.8312 17.0359 72.5131 17.9262C71.1995 16.6966 69.6312 15.9763 67.809 15.9763C63.804 15.9763 59.3115 20.3418 59.3115 26.5077C59.3115 29.2414 60.774 30.7243 63.6982 30.7243C65.9867 30.7243 67.7878 29.8135 69.4831 28.1811L69.0161 29.2632ZM104.107 24.2197C104.107 23.7323 104.594 22.3981 105.336 21.5502C105.802 21.0204 106.311 20.7234 107.138 20.7234C108.028 20.7234 108.536 21.0204 109.363 21.996C108.324 23.5629 106.587 25.1729 105.061 25.1729C104.552 25.1729 104.107 24.8349 104.107 24.2197ZM107.201 29.2632C107.01 29.7077 106.967 29.8141 106.967 29.8783C106.967 30.2593 107.307 30.3228 107.879 30.3228H113.007C113.664 30.3228 113.897 30.09 113.897 29.75C113.897 29.5383 113.791 29.3055 113.749 28.818L116.969 18.8158C117.288 17.8839 117.372 17.6081 117.372 17.4387C117.372 16.9724 117.034 16.9301 116.356 16.9301H112.181C111.227 16.9301 110.994 17.0359 110.698 17.9262C109.363 16.6966 107.816 15.9763 105.994 15.9763C101.989 15.9763 97.475 20.3418 97.475 26.5077C97.475 29.2414 98.9585 30.7243 101.883 30.7243C104.171 30.7243 105.93 29.8135 107.646 28.1811L107.201 29.2632ZM88.2142 17.651C88.2142 17.0789 88.0443 16.9307 87.3881 16.9307H83.7641C82.4935 16.9307 82.4935 16.9307 81.7937 18.9858L78.4667 28.5217C78.4455 28.6282 78.0639 29.7718 78.0639 29.836C78.0639 30.2804 78.4025 30.3234 79.0812 30.3234H83.6583C84.8237 30.3234 84.8661 30.1541 85.2689 28.8616L86.816 24.4333C87.2605 23.0767 87.7062 22.7368 88.5119 22.7368C89.0205 22.7368 89.4015 22.9908 89.4015 23.4372L87.8967 28.5223C87.5581 29.6038 87.4522 29.6038 87.4522 29.8366C87.4522 30.2811 87.7909 30.3241 88.4907 30.3241H93.1948C94.1479 30.3241 94.5084 30.3241 94.5084 29.3696C94.5084 29.0951 94.4873 28.8822 94.2762 28.48L95.7797 23.5001C96.3948 21.6361 96.586 20.9582 96.586 20.1102C96.586 17.9275 94.8901 16.4869 92.3052 16.4869C90.7587 16.4869 89.5708 17.0167 88.1514 18.034L88.2142 17.651ZM118.855 19.05C118.721 19.0517 118.588 19.0265 118.464 18.976C118.34 18.9255 118.227 18.8506 118.132 18.7558C118.037 18.661 117.962 18.5482 117.912 18.424C117.861 18.2998 117.836 18.1667 117.838 18.0327C117.838 17.4817 118.283 17.0366 118.855 17.0366C119.427 17.0366 119.872 17.4817 119.872 18.0327C119.872 18.6048 119.406 19.05 118.855 19.05ZM118.855 19.1988C119.491 19.1988 119.999 18.6683 119.999 18.0333C119.999 17.3977 119.491 16.889 118.855 16.889C118.22 16.889 117.69 17.3977 117.69 18.0333C117.692 18.3416 117.816 18.6365 118.034 18.8544C118.252 19.0724 118.547 19.1961 118.855 19.1988ZM119.046 18.1173C119.258 18.0962 119.427 18.0115 119.427 17.7569C119.427 17.5664 119.322 17.4394 118.983 17.4394H118.432V18.6901H118.581V18.1173H118.877L119.237 18.6901H119.428L119.046 18.1173ZM118.58 17.9692V17.5664H118.94C119.11 17.5664 119.3 17.6087 119.3 17.7569C119.3 17.9903 119.003 17.9692 118.812 17.9692H118.58Z" fill="#A5333A"/>
</svg>
