<svg width="110" height="14" viewBox="0 0 110 14" fill="none" xmlns="http://www.w3.org/2000/svg">
<path fill-rule="evenodd" clip-rule="evenodd" d="M33.2164 5.52145C32.7183 6.11038 32.2203 6.74351 31.3145 6.74351C30.4093 6.74351 31.2697 5.74743 29.9561 5.88377C28.6438 6.01949 29.0509 5.97466 28.734 5.74805C28.4171 5.52145 28.2248 5.7935 28.0548 6.06493C26.923 7.87655 25.6854 8.77987 24.3874 10.0044C23.5588 10.7851 22.991 11.0453 22.7339 10.8324C22.8752 10.706 23.0178 10.5797 23.1647 10.4564C24.5679 9.27915 26.1529 6.83503 26.1529 5.65779C26.1529 4.48055 24.2965 4.7526 23.3004 6.111C22.7439 6.86989 21.609 8.84337 21.236 10.439C20.8482 10.7334 20.5263 10.9494 20.2674 11.0908C19.7693 11.3634 19.1804 11.5894 19.8141 10.0947C20.4485 8.60182 20.8557 7.6045 21.0368 7.06163C21.218 6.51815 20.2674 6.42788 19.5882 6.92592C18.909 7.42334 17.8226 8.96228 18.1849 7.78566C18.5473 6.60904 18.0492 5.25064 16.7817 6.24672C15.5142 7.24217 15.1519 7.87717 14.6538 8.37397C14.1558 8.87263 13.9292 8.91745 14.4727 8.01164C15.0162 7.10708 15.6045 6.24672 15.9213 5.74868C16.2382 5.25064 15.7856 3.98313 14.9707 4.79805C14.7447 5.02403 14.0201 6.13777 13.2643 7.38225C13.2936 7.10521 13.1062 6.80701 12.5708 6.65449C12.1145 6.52437 11.5897 6.46959 11.0536 6.45714C11.777 4.34359 12.7065 1.47177 12.7065 0.996143C12.7065 0.362389 11.7104 -0.316811 10.8052 0.588375C10.3122 1.08143 7.63086 4.19293 5.13009 7.11393C4.94021 7.13706 4.74923 7.14995 4.55796 7.15253C3.65216 7.15253 1.93205 6.60904 1.93205 7.51485C1.93205 8.39389 2.99786 8.58999 3.92981 8.51653C2.82411 9.81044 1.72053 11.1062 0.619099 12.4037C-0.376979 13.581 1.16258 14.0329 1.84116 13.2186C3.1591 11.638 4.65882 9.86373 6.02469 8.25755C7.10543 8.11748 8.27271 7.97305 8.82865 7.96806C8.69482 8.3991 8.58405 8.83696 8.49683 9.27978C8.2254 10.7278 7.77218 10.5927 7.41048 10.5479C7.04816 10.5018 6.45985 10.7739 7.04816 11.4525C7.63647 12.1323 7.18387 13.8524 8.45138 13.8524C9.53835 13.8524 9.08514 11.9057 10.4435 8.19218L10.5556 7.88215C11.1781 7.85289 11.797 7.85165 12.2545 7.9662C12.5434 8.03904 12.8098 7.96744 12.996 7.82613C12.1686 9.20881 11.3699 10.6419 11.213 11.1356C10.8961 12.1317 11.1676 13.0823 12.1636 13.0823C13.1597 13.0823 12.7974 12.3577 13.8389 11.2259C14.8798 10.0941 15.6499 9.46032 15.6499 9.46032C15.6499 9.46032 15.0162 10.9084 15.0162 11.4518C15.0162 11.9953 15.922 12.5388 16.6005 11.9057C17.2797 11.2707 18.0492 10.5012 18.0492 10.5012C18.0492 10.5012 17.2343 13.0362 18.955 13.0362C19.854 13.0362 20.5793 12.6521 21.2678 12.118C21.4533 12.4903 21.8194 12.72 22.4407 12.72C23.9796 12.72 26.7419 9.86746 26.7419 9.86746C26.7419 9.86746 26.3341 11.7239 26.1075 12.3128C25.8815 12.9011 27.1042 13.1726 27.5568 12.2668C28.0094 11.3622 29.0963 7.82986 29.7749 7.78504C30.4541 7.74021 30.1372 8.32852 31.858 8.19218C31.858 8.19218 30.771 11.1362 30.6353 12.0856C30.4996 13.0362 31.6768 13.2641 31.9034 12.3583C32.13 11.4525 33.56 7.42894 34.5293 5.97467C35.0728 5.15913 33.7144 4.93314 33.2164 5.52145ZM35.5702 4.11698C35.774 4.11698 35.9694 4.03604 36.1134 3.89197C36.2575 3.7479 36.3385 3.5525 36.3385 3.34875C36.3385 3.14501 36.2575 2.9496 36.1134 2.80553C35.9694 2.66146 35.774 2.58053 35.5702 2.58053C35.3665 2.58053 35.1711 2.66146 35.027 2.80553C34.8829 2.9496 34.802 3.14501 34.802 3.34875C34.802 3.5525 34.8829 3.7479 35.027 3.89197C35.1711 4.03604 35.3665 4.11698 35.5702 4.11698ZM36.7929 8.14736C36.7929 8.14736 36.9286 8.91683 37.5624 8.91683C38.1961 8.91683 38.8299 7.73959 39.2831 7.06101C39.7357 6.38181 39.6454 5.83895 39.3279 5.61234C39.0111 5.38574 38.5585 5.06885 38.1059 5.34091C37.6527 5.61234 33.3521 8.32852 33.0346 11.77C32.7887 14.4351 37.2903 12.766 38.0598 11.9063C38.0598 11.9063 38.5578 14.5764 41.5909 11.4992C41.5909 11.4992 41.7727 14.1693 43.4019 12.4952C45.0317 10.82 46.209 9.37004 46.209 9.37004C46.209 9.37004 45.3941 12.3141 46.7973 12.3141C47.5219 12.3141 50.3284 9.23558 50.3284 9.23558C50.3284 9.23558 49.5589 12.268 49.6043 12.903C49.6492 13.5368 50.1018 14.0802 50.5095 13.129C50.9167 12.1784 52.3205 8.73691 52.864 7.69601C53.4075 6.65449 52.7283 5.5227 51.5959 6.33761C50.4641 7.15253 48.4265 9.09923 48.0648 9.37067C47.7025 9.64334 48.0193 9.05441 48.3362 8.37459C48.6531 7.69601 49.6043 5.61296 48.6076 5.65841C47.6116 5.70386 45.9363 7.74083 44.4876 9.18888C44.4876 9.18888 44.3065 8.46548 44.8499 7.6045C45.3934 6.74476 45.6194 5.74868 44.8954 5.65841C44.1707 5.56752 44.035 6.02073 44.035 6.02073C44.035 6.02073 42.1331 5.5227 40.0962 7.87717C38.7807 9.39682 39.0098 9.73237 39.0098 9.73237C39.0098 9.73237 36.5651 11.9966 35.1612 11.9966C33.7599 11.9953 35.48 9.32398 36.7929 8.14736ZM56.4879 10.2298C56.4879 10.2298 55.1288 10.9544 55.1288 11.4979C55.1288 12.0402 55.808 12.0402 57.121 12.0402C58.434 12.0402 60.1995 11.7239 60.1995 10.0486C60.1995 8.37335 57.5281 7.42209 57.5281 5.43056C57.5281 3.4384 60.3807 1.80857 63.0968 1.80857C65.813 1.80857 65.7682 3.57412 65.0884 3.93644C64.4098 4.29876 63.1865 4.20849 63.2332 3.21242C63.2332 3.21242 59.5197 2.57804 59.5197 5.06823C59.5197 7.10584 62.5534 7.24093 62.5534 9.68568C62.5534 12.1304 59.2937 13.67 56.7132 13.67C54.1321 13.67 53.001 12.7194 53.001 11.9493C53.001 11.1792 54.0879 10.2298 56.4879 10.2298Z" fill="#00A0E4"/>
<path fill-rule="evenodd" clip-rule="evenodd" d="M81.5231 6.06431C80.5724 6.38119 77.8556 8.73567 77.3122 9.32397C77.3122 9.32397 77.8108 7.33244 78.2628 6.6078C78.7166 5.88315 77.6745 5.43055 77.0407 5.88315C76.407 6.33574 72.9213 9.95711 72.2863 10.7266C72.2863 10.7266 72.8298 8.69022 73.6447 7.96495C74.4609 7.2403 73.9622 6.56173 73.5544 6.652C73.5544 6.652 73.6908 5.11306 70.9279 6.06369C70.9279 6.06369 69.0858 5.97342 67.596 6.01388C68.1663 4.89205 68.7253 3.88601 69.0273 3.52805C69.9767 2.39625 68.8 1.85339 68.0299 2.57742C67.7566 2.83577 66.7992 4.44817 65.9519 6.04688C65.1114 6.04439 63.7562 6.09606 63.0956 6.42601C62.0996 6.92405 62.1438 8.3721 63.0956 8.3721C63.593 8.3721 64.0463 7.82861 64.0463 7.82861L65.0847 7.7676C65.0386 7.86597 64.9938 7.96184 64.9508 8.05584C64.0911 9.95648 64.0463 10.772 63.5924 10.8175C63.1398 10.8623 62.6879 11.135 62.6879 12.1304C62.6879 13.1259 63.1404 13.67 64.0463 12.8538C64.9508 12.0389 65.4047 10.8623 66.0826 9.23308C66.26 8.80601 66.5059 8.26129 66.7805 7.67796C67.6303 7.63687 68.4757 7.60263 68.98 7.60263C68.98 7.60263 66.1735 9.82139 66.1735 11.3149C66.1735 12.809 67.9391 13.3979 70.2033 11.7233C70.2033 11.7233 70.9727 15.6615 75.5908 9.0071C75.5908 9.0071 74.7746 12.131 76.0434 12.131C76.6771 12.131 79.5745 9.05254 80.118 8.59995C80.118 8.59995 79.031 11.5876 79.0771 12.357C79.1219 13.1265 79.031 13.2168 79.5297 13.2168C80.0271 13.2168 80.7069 11.0441 81.2952 9.54934C81.8835 8.05647 82.0647 7.96495 82.0647 7.42147C82.0666 6.88047 82.4743 5.74805 81.5231 6.06431ZM109.593 2.12607C110.046 1.58258 109.05 0.948827 108.234 1.99035C107.419 3.03188 106.513 4.97858 106.106 5.70261C106.106 5.70261 104.021 4.84474 102.255 6.91658C101.121 5.64098 99.3149 6.6078 99.3149 6.6078C99.4961 5.29484 98.2292 5.56627 97.8208 6.01949C97.4136 6.47208 95.3318 8.82656 94.878 9.41549C94.4254 10.0038 94.0182 10.4564 93.7462 10.2304C93.4748 10.0044 94.2449 8.50968 94.652 7.51423C95.0591 6.51815 94.0637 6.69931 94.0637 6.69931C94.0637 6.69931 94.3812 5.47662 93.2488 5.61234C92.1164 5.74806 89.1935 6.77713 87.8158 10.909C87.7628 11.0656 87.7218 11.2261 87.6932 11.389C87.4914 11.5191 87.2555 11.529 87.0451 11.1723C86.9087 10.8878 86.8241 10.3811 87.0911 9.50514C87.5886 7.87593 89.5813 3.66501 90.2599 2.62348C90.9397 1.58258 89.8988 0.90338 89.219 1.67285C88.5392 2.44232 87.0463 5.88315 87.0463 5.88315C87.0463 5.88315 85.1899 5.38511 83.3789 7.33182C82.2178 8.57941 81.3861 10.5467 81.3861 11.3616C81.3861 12.1765 82.1786 14.8242 85.0766 11.7457C85.6966 12.7804 86.0166 13.0126 86.5128 12.9653C88.7515 11.9947 87.6047 12.7187 88.4215 12.7187C90.5625 12.7187 91.233 12.1628 91.8225 11.2937C91.9589 13.4216 93.1579 12.7648 93.9273 12.085C94.6968 11.4064 96.3727 9.73112 96.3727 9.73112C96.3727 9.73112 95.9656 11.6778 95.6481 12.3122C95.3318 12.946 96.9162 12.8096 97.0065 12.3122C97.0974 11.8135 97.7311 10.7266 98.3649 9.45969C99.1916 7.80745 100.493 7.42209 101.399 7.60325C101.532 7.63002 101.645 7.63375 101.743 7.62255C101.625 7.81118 101.509 8.01538 101.399 8.23763C99.5421 11.9499 99.9953 14.3486 103.39 12.2661C103.39 12.2661 103.432 14.6555 106.741 11.6778C107.194 11.2707 107.058 10.6818 106.334 11.0895C105.609 11.4979 104.748 11.4979 105.247 10.5921C105.746 9.6863 107.971 4.07278 109.593 2.12607Z" fill="#00A0E4"/>
<path fill-rule="evenodd" clip-rule="evenodd" d="M42.4525 7.82986C42.4525 7.82986 39.7195 9.76288 40.1441 10.6824C40.4149 11.2707 41.8187 9.14282 42.4525 7.82986ZM71.2012 7.78504C71.2012 7.78504 69.933 7.92138 69.1181 9.00835C68.3032 10.0941 67.4889 11.6785 68.6655 11.0447C69.8422 10.411 71.1103 9.05317 71.2012 7.78504ZM85.6891 7.60388C85.6891 7.60388 84.6931 7.92138 83.8775 9.14344C83.0626 10.3655 82.747 12.4031 83.8327 11.2265C84.9197 10.0486 85.5528 8.87201 85.6891 7.60388ZM92.1176 7.64995C92.1176 7.64995 91.0767 8.46486 91.3929 9.73175C91.3929 9.73175 90.3969 10.9999 89.7189 11.0447C89.0391 11.0895 90.7592 7.37727 92.1176 7.64995ZM103.889 7.46878C103.39 7.74022 102.258 9.46032 102.123 10.3649C101.987 11.2707 102.258 11.407 103.028 10.5921C103.797 9.7772 104.206 8.6454 104.386 7.92076C104.567 7.19611 104.231 7.2814 103.889 7.46878ZM8.40656 6.60842C8.10525 6.63582 7.71553 6.69682 7.29407 6.76779C9.00047 4.76879 10.263 3.30331 10.263 3.30331C10.3084 3.66564 9.90068 5.11431 9.71952 5.52145C9.57683 5.85215 9.44293 6.18658 9.31797 6.52438C8.98553 6.55239 8.6755 6.58352 8.40656 6.60842ZM24.4789 6.88048C24.8387 7.16 23.7873 8.2507 22.8503 9.09488C23.5289 7.10522 24.0711 6.56298 24.4789 6.88048Z" fill="white"/>
</svg>
