<svg width="120" height="48" viewBox="0 0 120 48" fill="none" xmlns="http://www.w3.org/2000/svg">
<path d="M117.119 45.3657C116.355 45.3657 115.623 45.0645 115.082 44.5285C114.542 43.9924 114.239 43.2654 114.239 42.5073C114.239 41.7492 114.542 41.0222 115.082 40.4861C115.623 39.9501 116.355 39.6489 117.119 39.6489C118.705 39.6489 120 40.9339 120 42.5073C120 44.091 118.708 45.3579 117.119 45.3657ZM117.112 39.9811C116.777 39.9814 116.446 40.0473 116.137 40.1749C115.828 40.3026 115.547 40.4894 115.311 40.7248C115.075 40.9602 114.888 41.2395 114.761 41.5467C114.634 41.8539 114.57 42.183 114.571 42.515C114.573 43.0138 114.724 43.5008 115.005 43.9145C115.286 44.3282 115.684 44.6501 116.149 44.8394C116.614 45.0288 117.125 45.0771 117.618 44.9784C118.11 44.8796 118.563 44.6382 118.917 44.2846C119.272 43.931 119.513 43.4811 119.61 42.9917C119.707 42.5023 119.655 41.9953 119.462 41.5348C119.269 41.0743 118.943 40.681 118.524 40.4045C118.106 40.1279 117.614 39.9806 117.112 39.9811ZM116.042 40.8515H117.462C117.955 40.8515 118.43 40.9416 118.474 41.6549C118.49 42.0618 118.365 42.2086 118.056 42.4429C118.381 42.6515 118.391 42.7004 118.44 43.2464C118.474 43.6609 118.414 43.7279 118.591 44.0009H118.106L118.038 43.6017C117.973 43.2283 118.155 42.6489 117.496 42.6489H116.452V43.9983H116.045L116.042 40.8515ZM116.452 41.2069V42.291H117.472C117.747 42.291 118.015 42.2163 118.056 41.8094C118.113 41.2712 117.721 41.2043 117.472 41.2043H116.452V41.2069Z" fill="black"/>
<path d="M59.7171 48L0 37.5399L4.47405 0H114.745L119.221 37.5399L59.7171 48Z" fill="#CF4037"/>
<path d="M19.8556 8.57767H23.9585V14.4824H24.0234C24.3893 13.4575 25.9205 12.7107 27.1843 12.7107C29.808 12.7107 30.1402 14.606 30.1402 16.594V26.9459C30.1402 28.9339 29.3565 30.7751 26.7328 30.7751C25.4715 30.7751 19.8556 30.7056 19.8556 30.7056V8.57767ZM23.9585 27.5073C23.9585 27.9425 24.4257 28.4395 24.9888 28.4395C25.552 28.4395 25.9205 27.9425 26.0347 27.5073V16.8772C25.9231 16.442 25.5546 15.9425 24.9888 15.9425C24.4257 15.976 23.9585 16.4111 23.9585 16.8772V27.5073ZM39.1246 14.4515H39.1895C39.8201 13.3648 41.1073 12.7107 42.5684 12.7107C44.6601 12.7107 45.1895 13.8901 45.1895 15.8189V20.5596H41.0866V16.8772C40.975 16.442 40.718 15.9451 40.1549 15.9451C39.5917 15.9451 39.1246 16.442 39.1246 16.8772V30.7081H35.058V12.9296H39.1246V14.4515ZM59.7976 12.9296L56.808 30.8936C56.3097 33.9708 55.7128 35.1348 51.5632 35.1348H49.4378V31.7639H50.7665C51.6644 31.7639 51.9628 31.6094 51.9628 30.9554C51.9628 30.7983 51.9628 30.6438 51.9291 30.4275L48.5891 12.9296H52.8063L54.4205 26.5107H54.4853L55.8815 12.9296H59.7976ZM63.8824 16.7227C63.8824 14.0498 66.1402 12.4146 68.8288 12.4146C71.4862 12.4146 73.8089 13.5991 73.8089 17.0214C73.8089 17.0214 73.7051 29.6781 73.8063 30.8601C73.8063 30.8601 69.0961 31.0841 66.7033 30.927C64.5831 30.788 63.8824 29.7451 63.8824 27.7262V23.8996C63.8824 19.424 69.8564 21.1339 69.8564 17.279V16.5657C69.8564 16.1305 69.3945 15.6335 68.8288 15.6335C68.2656 15.6335 67.949 16.1305 67.949 16.5657V18.2189H63.8824V16.7227ZM67.936 27.1931C67.936 27.618 68.1281 28.1047 68.7846 28.1047C69.4386 28.1047 69.6696 27.618 69.6696 27.1931V22.1665L68.7846 22.6532C68.0891 23.1399 67.936 23.2609 67.936 24.0232V27.1931ZM83.263 14.485H83.3305C83.5952 13.3957 84.9447 12.5639 86.071 12.5639C88.7621 12.5639 89.4628 14.5468 89.4628 16.5966V30.7056H85.3573V16.8772C85.2457 16.442 84.859 15.9451 84.2933 15.9451C83.7301 15.9451 83.263 16.442 83.1307 16.8772V30.7081H79.0485V12.9296H83.2656L83.263 14.485ZM99.2647 12.7056H101.237V15.6257H99.2647V26.5725C99.3971 27.1313 99.4957 27.7854 100.126 27.7854H101.377V30.8575H98.7327C95.712 30.7056 95.18 29.8378 95.18 27.103V15.6257H93.3737V12.7056H95.18V9.32445H99.2647V12.7056Z" fill="white"/>
<path d="M59.6184 44.8249L115.863 34.9468L112.079 2.98456H7.14436L3.35803 34.9468L59.6184 44.8249ZM59.6028 43.4652L4.86582 33.8472L8.4108 4.32619C8.4108 4.33134 110.81 4.32619 110.81 4.32619L114.355 33.8472L59.6028 43.4652Z" fill="white"/>
</svg>
