<svg width="120" height="26" viewBox="0 0 120 26" fill="none" xmlns="http://www.w3.org/2000/svg">
<path d="M27.331 4.67849e-06H0.000737337V25.3125L27.331 4.67849e-06Z" fill="#44C8F5"/>
<path d="M13.6633 0H0V12.6621L13.6633 0Z" fill="#231F20"/>
<path d="M65.4948 5.49413L61.9272 19.8133H68.2305L71.7952 5.49413H65.4948Z" fill="#00A0E4"/>
<path d="M49.6533 13.7932L51.984 9.66233L52.74 13.7932H49.6533ZM50.202 5.49266L42.0955 19.8111H46.2644L47.61 17.4244H53.3975L53.8287 19.8111H59.9818L57.3664 5.49266H50.202Z" fill="#00A0E4"/>
<path d="M94.2809 5.49413L90.7228 19.8133H97.0247L100.584 5.49413H94.2809Z" fill="#00A0E4"/>
<path d="M91.4642 5.49413H85.0054L79.5989 10.178L80.7788 5.49413H74.7375L71.1793 19.8133H77.2017L78.4321 14.87L81.6523 19.8133H88.9423L83.543 12.3142L91.4642 5.49413Z" fill="#00A0E4"/>
<path d="M37.1495 12.0014C37.1495 12.0014 36.7401 16.6523 32.7923 16.6523H30.5586L32.5259 8.92905H34.5531C35.2784 8.93344 37.3779 9.12244 37.1495 12.0014ZM36.8298 5.50072L35.1996 5.49559H27.3128L23.7547 19.8089H31.586L34.6845 19.8133C39.0467 19.8133 43.3397 16.5534 43.3397 11.5604C43.3397 5.68532 36.8298 5.50072 36.8298 5.50072Z" fill="#00A0E4"/>
<path d="M115.637 5.49193L113.535 13.9236L110.734 5.49193H103.724L100.163 19.8133H104.522L106.645 11.3076L109.454 19.8133H116.434L120 5.49193H115.637Z" fill="#00A0E4"/>
</svg>
