<svg width="120" height="31" viewBox="0 0 120 31" fill="none" xmlns="http://www.w3.org/2000/svg">
<g clip-path="url(#clip0_210_1736)">
<rect x="-20" y="-65" width="160" height="160" rx="20" fill="#F4F7FF"/>
<path d="M108.609 1.80959H10.6663C7.67589 1.80959 5.25049 4.06308 5.25049 6.84456V25.3061C5.25049 28.0861 7.67589 30.3396 10.6663 30.3396H108.609C111.601 30.3396 114.025 28.0861 114.025 25.3061V6.84456C114.025 4.06308 111.601 1.80959 108.609 1.80959ZM113.117 24.5245C113.117 27.0715 110.733 29.1333 107.792 29.1333H11.4851C8.54337 29.1333 6.15928 27.0715 6.15928 24.5245V7.62326C6.15928 5.07775 8.54337 3.0145 11.4851 3.0145H107.792C110.733 3.0145 113.117 5.07775 113.117 7.62326V24.5245Z" fill="#CF4037"/>
<path d="M111.968 23.6706C111.968 26.0981 109.989 28.0847 107.573 28.0847H11.703C9.28502 28.0847 7.30811 26.0981 7.30811 23.6706V8.47715C7.30811 6.04963 9.28649 4.06307 11.703 4.06307H107.573C109.991 4.06307 111.968 6.04963 111.968 8.47715V23.6706ZM117.27 1.52936C117.825 1.52936 118.061 1.66799 118.061 1.9836C118.061 2.28151 117.848 2.40391 117.295 2.40391H116.808V1.52936H117.27ZM116.239 4.15156H116.81V2.82866H117.376L117.993 4.15156H118.618L117.958 2.721C118.151 2.6984 118.328 2.60302 118.454 2.45425C118.579 2.30549 118.644 2.11452 118.633 1.92018C118.633 1.3804 118.217 1.10461 117.385 1.10461H116.242V4.15156H116.239ZM118.205 0.527966C119.037 0.87307 119.616 1.72993 119.616 2.70183C119.616 3.62948 119.011 4.48191 118.183 4.82554C117.904 4.94272 117.605 5.0027 117.302 5.00194C116.999 5.00118 116.7 4.93969 116.422 4.82112C116.005 4.63727 115.65 4.33804 115.398 3.95883C115.147 3.57961 115.009 3.13625 115.001 2.68118C115.001 1.78302 115.581 0.87307 116.428 0.523542C116.998 0.293368 117.636 0.294955 118.205 0.527966ZM116.14 0.262501C115.696 0.49179 115.322 0.837606 115.059 1.2629C114.797 1.68819 114.655 2.17693 114.648 2.67675C114.648 3.73566 115.327 4.73115 116.292 5.14557C117.252 5.55557 118.412 5.32845 119.191 4.56598C119.693 4.07634 119.967 3.41268 119.967 2.67675C119.967 1.95558 119.698 1.29044 119.204 0.794905C118.958 0.540754 118.663 0.339227 118.337 0.202574C118.011 0.0659205 117.661 -0.00300509 117.307 -1.34375e-05C116.884 -1.34375e-05 116.496 0.0869999 116.14 0.262501Z" fill="#CF4037"/>
<path d="M17.8566 18.0442V15.0504H26.4148C26.4429 15.5208 26.4561 15.7701 26.4561 15.7996C26.4561 18.0472 25.7495 19.9231 24.3376 21.4289C22.9257 22.9347 21.1716 23.6868 19.0766 23.6868C17.0363 23.6868 15.3102 22.9391 13.8983 21.4436C12.4865 19.9482 11.7798 18.1238 11.7798 15.9721C11.7798 13.8204 12.4894 12.0152 13.9087 10.5566C15.3279 9.09805 17.0776 8.36803 19.1593 8.36803C20.7305 8.36803 22.1718 8.86504 23.4804 9.85758C24.7905 10.8516 25.6373 12.0993 26.0239 13.6006H22.8844C22.2368 12.3397 21.4962 11.3191 19.3156 11.3191C17.6781 11.3191 16.6911 12.1037 15.9741 12.8912C15.2571 13.6788 14.8986 14.661 14.8986 15.8394C14.8986 17.2095 15.2645 18.3126 15.9947 19.1518C16.725 19.9909 18.0897 20.6708 19.3038 20.6708C20.0754 20.6708 20.996 20.2004 21.5404 19.78C22.0863 19.3597 22.4403 18.7831 22.6071 18.0457H17.8566V18.0442ZM35.0645 15.7288C35.5986 16.2848 35.8671 16.9617 35.8671 17.7581C35.8671 18.5707 35.603 19.2521 35.0749 19.7992C34.5482 20.3493 33.8887 20.6236 33.098 20.6236C32.2924 20.6236 31.6212 20.3493 31.0856 19.7992C30.5516 19.2506 30.2845 18.5633 30.2845 17.736C30.2845 16.9396 30.5545 16.2656 31.0989 15.717C31.6418 15.1683 32.3087 14.8926 33.098 14.8926C33.8754 14.894 34.529 15.1728 35.0645 15.7288ZM37.5622 22.066C38.744 20.9245 39.3356 19.488 39.3356 17.7596C39.3356 16.0311 38.741 14.5961 37.5504 13.4546C36.3599 12.3116 34.8698 11.7394 33.0758 11.7394C31.2671 11.7394 29.7726 12.3146 28.5894 13.4635C27.4062 14.6138 26.8161 16.068 26.8161 17.8259C26.8161 19.5411 27.4107 20.9599 28.6012 22.0881C29.7918 23.2163 31.2907 23.7797 33.098 23.7797C34.8919 23.7797 36.379 23.2075 37.5622 22.066ZM48.0546 15.7288C48.5842 16.2848 48.8513 16.9617 48.8513 17.7581C48.8513 18.5707 48.5887 19.2521 48.0664 19.7992C47.8171 20.0674 47.5136 20.2795 47.1761 20.4216C46.8386 20.5638 46.4748 20.6326 46.1087 20.6236C45.3105 20.6236 44.6452 20.3493 44.1155 19.7992C43.5844 19.2506 43.3189 18.5633 43.3189 17.736C43.3189 16.9396 43.5874 16.2656 44.1259 15.717C44.381 15.4499 44.6889 15.2387 45.0299 15.0968C45.371 14.9549 45.7378 14.8853 46.1072 14.8926C46.8744 14.894 47.525 15.1728 48.0546 15.7288ZM50.5287 22.066C51.7001 20.9245 52.2858 19.488 52.2858 17.7596C52.2858 16.0311 51.6957 14.5961 50.5169 13.4546C49.3381 12.3116 47.8599 11.7394 46.0836 11.7394C44.2911 11.7394 42.8114 12.3146 41.6385 13.4635C40.4671 14.6138 39.8829 16.068 39.8829 17.8259C39.8829 19.5411 40.4701 20.9599 41.6503 22.0881C42.8291 23.2149 44.3147 23.7797 46.1072 23.7797C47.8835 23.7797 49.3558 23.2075 50.5287 22.066ZM60.9355 15.7568C61.446 16.2951 61.7012 16.9602 61.7012 17.7522C61.7012 18.5899 61.446 19.2816 60.9355 19.8272C60.4265 20.3729 59.773 20.6458 58.9807 20.6458C58.2018 20.6458 57.5615 20.3759 57.0584 19.839C56.5553 19.3007 56.3045 18.612 56.3045 17.7758C56.3045 16.9543 56.5583 16.2774 57.0687 15.7465C57.5792 15.2155 58.2298 14.9501 59.0235 14.9501C59.7892 14.9486 60.4265 15.2185 60.9355 15.7568ZM61.5492 13.1213C60.6965 12.2482 59.6476 11.8117 58.3995 11.8117C56.8814 11.8117 55.6229 12.3765 54.6227 13.5033C53.6224 14.6315 53.1223 16.0547 53.1223 17.7728C53.1223 19.522 53.6209 20.9584 54.6182 22.0866C55.617 23.2134 56.8946 23.7782 58.4511 23.7782C59.8098 23.7782 60.8927 23.2547 61.6997 22.2061V23.3963H64.7315V8.42112H61.5492V13.1213ZM69.5306 23.4051H66.3204V12.2025H69.3757V13.403C70.019 12.3677 70.9971 11.8515 72.3101 11.8515C73.6807 11.8515 74.7163 12.5093 75.4156 13.8277C76.2005 12.5093 77.3365 11.8515 78.8221 11.8515C79.9212 11.8515 80.8418 12.2232 81.5854 12.9679C82.1416 13.5195 82.4912 14.1905 82.6343 14.9796C82.7199 15.3955 82.7627 16.1712 82.7627 17.3024V23.4036H79.5539V17.4587C79.5539 15.7037 79.1113 14.9781 77.9591 14.9781C76.7803 14.9781 76.1916 15.7524 76.1916 17.3024V23.4036H72.9829V17.3024C72.9829 15.7524 72.4326 14.9781 71.3305 14.9781C70.1296 14.9781 69.5292 15.7524 69.5292 17.3024L69.5306 23.4051ZM91.7104 15.7553C92.2208 16.2951 92.4761 16.9691 92.4761 17.7787C92.4761 18.6179 92.2238 19.3081 91.7222 19.8464C91.2191 20.3862 90.5729 20.6546 89.7836 20.6546C89.0224 20.6546 88.3836 20.3818 87.8657 19.8346C87.3479 19.2875 87.0897 18.6105 87.0897 17.8009C87.0897 16.9912 87.345 16.3128 87.8539 15.7656C88.3644 15.22 89.0003 14.9456 89.7615 14.9456C90.5508 14.9471 91.1999 15.217 91.7104 15.7553ZM92.6605 13.403C92.0733 12.3485 90.9845 11.8205 89.3956 11.8205C87.7772 11.8205 86.4539 12.3795 85.4241 13.4974C84.3929 14.6153 83.878 16.0532 83.878 17.8112C83.878 19.5854 84.3825 21.0248 85.3917 22.1265C86.3993 23.2296 87.7138 23.7797 89.3307 23.7797C91.048 23.7797 92.1589 23.2517 92.6605 22.1914V23.3977H95.6893V12.2025H92.6605V13.403ZM100.499 23.4051H97.1572V12.2025H100.338V13.403C101.065 12.3677 102.085 11.8515 103.393 11.8515C104.612 11.8515 105.608 12.2305 106.381 12.9901C106.81 13.4222 107.104 13.8735 107.262 14.3425C107.417 14.8114 107.495 15.5016 107.495 16.4087V23.4036H104.153V17.3024C104.153 15.7524 103.57 14.9781 102.403 14.9781C101.132 14.9781 100.496 15.7081 100.496 17.1667V23.4051H100.499Z" fill="#F4F7FF"/>
</g>
<defs>
<clipPath id="clip0_210_1736">
<rect width="120" height="30.3382" fill="white"/>
</clipPath>
</defs>
</svg>
