<svg width="42" height="42" viewBox="0 0 42 42" fill="none" xmlns="http://www.w3.org/2000/svg">
<rect x="0.166016" y="0.166992" width="41.6667" height="41.6667" rx="20.8333" fill="white"/>
<path d="M20.9994 12.466C23.7604 12.466 24.1369 12.466 25.2664 12.466C26.2705 12.466 26.7725 12.717 27.149 12.8425C27.651 13.0935 28.0275 13.219 28.404 13.5955C28.7805 13.9721 29.0315 14.3486 29.157 14.8506C29.2825 15.2271 29.408 15.7291 29.5335 16.7331C29.5335 17.8626 29.5335 18.1136 29.5335 21.0002C29.5335 23.8867 29.5335 24.1377 29.5335 25.2672C29.5335 26.2712 29.2825 26.7733 29.157 27.1498C28.906 27.6518 28.7805 28.0283 28.404 28.4048C28.0275 28.7813 27.651 29.0323 27.149 29.1578C26.7725 29.2833 26.2705 29.4088 25.2664 29.5343C24.1369 29.5343 23.8859 29.5343 20.9994 29.5343C18.1128 29.5343 17.8618 29.5343 16.7323 29.5343C15.7283 29.5343 15.2263 29.2833 14.8498 29.1578C14.3478 28.9068 13.9713 28.7813 13.5948 28.4048C13.2182 28.0283 12.9672 27.6518 12.8417 27.1498C12.7162 26.7733 12.5907 26.2712 12.4652 25.2672C12.4652 24.1377 12.4652 23.8867 12.4652 21.0002C12.4652 18.1136 12.4652 17.8626 12.4652 16.7331C12.4652 15.7291 12.7162 15.2271 12.8417 14.8506C13.0927 14.3486 13.2182 13.9721 13.5948 13.5955C13.9713 13.219 14.3478 12.968 14.8498 12.8425C15.2263 12.717 15.7283 12.5915 16.7323 12.466C17.8618 12.466 18.2383 12.466 20.9994 12.466ZM20.9994 10.5835C18.1128 10.5835 17.8618 10.5835 16.7323 10.5835C15.6028 10.5835 14.8498 10.8345 14.2223 11.0855C13.5948 11.3365 12.9672 11.713 12.3397 12.3405C11.7122 12.968 11.4612 13.47 11.0847 14.2231C10.8337 14.8506 10.7082 15.6036 10.5827 16.7331C10.5827 17.8626 10.5827 18.2391 10.5827 21.0002C10.5827 23.8867 10.5827 24.1377 10.5827 25.2672C10.5827 26.3967 10.8337 27.1498 11.0847 27.7773C11.3357 28.4048 11.7122 29.0323 12.3397 29.6598C12.9672 30.2873 13.4692 30.5383 14.2223 30.9148C14.8498 31.1658 15.6028 31.2913 16.7323 31.4168C17.8618 31.4168 18.2383 31.4168 20.9994 31.4168C23.7604 31.4168 24.1369 31.4168 25.2664 31.4168C26.396 31.4168 27.149 31.1658 27.7765 30.9148C28.404 30.6638 29.0315 30.2873 29.659 29.6598C30.2865 29.0323 30.5375 28.5303 30.914 27.7773C31.165 27.1498 31.2905 26.3967 31.416 25.2672C31.416 24.1377 31.416 23.7612 31.416 21.0002C31.416 18.2391 31.416 17.8626 31.416 16.7331C31.416 15.6036 31.165 14.8506 30.914 14.2231C30.663 13.5955 30.2865 12.968 29.659 12.3405C29.0315 11.713 28.5295 11.462 27.7765 11.0855C27.149 10.8345 26.396 10.709 25.2664 10.5835C24.1369 10.5835 23.8859 10.5835 20.9994 10.5835Z" fill="#1D49E3"/>
<path d="M20.9994 15.6036C17.9873 15.6036 15.6028 17.9881 15.6028 21.0002C15.6028 24.0122 17.9873 26.3967 20.9994 26.3967C24.0114 26.3967 26.396 24.0122 26.396 21.0002C26.396 17.9881 24.0114 15.6036 20.9994 15.6036ZM20.9994 24.5142C19.1168 24.5142 17.4853 23.0082 17.4853 21.0002C17.4853 19.1176 18.9913 17.4861 20.9994 17.4861C22.8819 17.4861 24.5134 18.9921 24.5134 21.0002C24.5134 22.8827 22.8819 24.5142 20.9994 24.5142Z" fill="#1D49E3"/>
<path d="M26.5215 16.7331C27.2146 16.7331 27.7765 16.1712 27.7765 15.4781C27.7765 14.7849 27.2146 14.2231 26.5215 14.2231C25.8283 14.2231 25.2664 14.7849 25.2664 15.4781C25.2664 16.1712 25.8283 16.7331 26.5215 16.7331Z" fill="#1D49E3"/>
</svg>
