<svg width="120" height="35" viewBox="0 0 120 35" fill="none" xmlns="http://www.w3.org/2000/svg">
<path d="M99.6621 32.6959C80.5726 36.8826 55.3965 32.6129 55.3965 32.6129C55.3965 32.6129 113.495 38.0262 111.955 16.3914C110.387 -5.52008 28.164 3.70192 28.164 3.70192C78.553 -4.38577 101.673 3.25003 103.508 3.58203C113.089 6.13652 119.305 10.8305 119.877 15.9856C121.408 25.4382 108.34 30.7869 99.6621 32.6959Z" fill="#C4053F"/>
<path d="M66.5461 28.1033C64.6095 28.1033 63.3 27.6606 62.5991 26.7753C61.8982 25.89 61.7783 24.5528 62.3593 22.7453L65.6977 12.5366C66.3893 10.3786 67.2839 8.94 68.3628 8.22068C69.4418 7.50137 71.1294 7.13249 73.4626 7.13249H75.8326C78.1381 7.13249 79.1525 7.37227 80.0286 8.35902C80.7756 9.20744 80.8033 10.3786 80.1116 12.5366L76.7825 22.7361C76.2015 24.5805 75.5744 26.0376 74.311 26.9229C72.7622 27.8042 70.9898 28.2144 69.2113 28.1033H66.5461ZM77.3266 12.223C77.4857 11.8928 77.5759 11.5336 77.5917 11.1674C77.6076 10.8011 77.5488 10.4355 77.4188 10.0927C77.1514 9.68698 76.7641 9.55787 76.0448 9.50254C75.4306 9.4615 74.8145 9.4615 74.2004 9.50254C73.4402 9.45589 72.6873 9.67426 72.0701 10.1204C71.4523 10.6846 71.0375 11.4365 70.8896 12.2599L67.3853 23.0681C67.2265 23.3963 67.1342 23.7526 67.1137 24.1167C67.0931 24.4807 67.1446 24.8451 67.2654 25.1892C67.5052 25.5949 68.2614 25.8531 69.4695 25.8531C70.5774 25.9662 71.6905 25.696 72.6234 25.0877C73.1675 24.7465 73.4349 24.0825 73.7946 23.0773L77.3266 12.223Z" fill="#C4053F"/>
<path d="M11.7396 27.7713C11.7396 27.7713 -0.00921657 27.7713 5.42611e-06 27.7713L6.66752 7.39071H11.6382C11.6382 7.39071 5.61621 25.4566 5.66232 25.4566H12.4958L11.7396 27.7713Z" fill="#C4053F"/>
<path d="M31.1336 9.73309L31.8898 7.44604H20.224L13.5565 27.7344H25.1947L25.9601 25.4566H19.2373C19.2373 25.4566 20.4453 21.7032 21.801 17.6271H27.6477L28.4039 15.3308H22.5664L24.4108 9.69621L31.1336 9.73309Z" fill="#C4053F"/>
<path d="M61.852 7.39071L57.4254 21.0024L55.581 7.39071H50.7026L44.0904 27.6791H48.9412L53.3769 14.0582C53.3769 14.0582 55.2213 27.4762 55.2213 27.6699H58.0433L64.6186 7.39071H61.852Z" fill="#C4053F"/>
<path d="M97.0155 7.4276H93.465L89.2321 12.7671L88.1808 7.4276L82.9704 7.43682L84.8886 16.6773L76.4412 27.7713H79.9364L85.6355 20.2738L87.1941 27.7713H92.1832L89.9607 16.4559L97.0155 7.4276Z" fill="#C4053F"/>
<path d="M45.0219 7.39071L40.6414 21.0393L38.797 7.43682H33.9278L27.3064 27.7252H32.1848L36.6206 14.1043C36.6206 14.1043 38.465 27.5315 38.465 27.716H41.2962L47.8622 7.39071H45.0219Z" fill="#C4053F"/>
</svg>
