<svg width="120" height="73" viewBox="0 0 120 73" fill="none" xmlns="http://www.w3.org/2000/svg">
<path fill-rule="evenodd" clip-rule="evenodd" d="M36.3249 0C16.2411 0 0 16.2867 0 36.3249C0 56.3626 16.2411 72.6037 36.3249 72.6037C56.3632 72.6037 72.6031 56.3632 72.6031 36.3249C72.6031 16.2867 56.3632 0 36.3249 0ZM22.9663 18.6657C25.3453 18.6657 27.3125 20.6329 27.3125 23.0112C27.3125 25.4357 25.3453 27.4036 22.9663 27.4036C21.8016 27.4031 20.6847 26.9401 19.8612 26.1165C19.0377 25.2928 18.5749 24.1759 18.5746 23.0112C18.5746 20.6329 20.5418 18.6657 22.9663 18.6657ZM40.0765 53.8008H34.953V19.5809H38.3383V50.3699H45.2001V53.8014L40.0765 53.8008ZM40.0765 64.6432C52.9317 62.9505 63.0884 52.6565 64.6432 39.7558H45.2001V36.187H67.754C67.754 52.2447 55.6769 65.6495 40.0765 67.5712C38.8412 67.7091 37.5603 67.754 36.3249 67.754C31.5214 67.754 26.9918 66.7015 22.9663 64.8266C12.2612 59.7941 4.80416 48.9055 4.80416 36.3249C4.80416 23.7437 12.2612 12.8558 22.9663 7.82327C26.809 6.03887 31.1096 4.98696 35.6386 4.8497V7.77773C31.2146 7.86582 26.8734 8.99413 22.9663 11.0714C13.9083 15.8749 7.73219 25.3908 7.73219 36.3249C7.73219 47.259 13.9083 56.775 22.9663 61.5779C26.9469 63.6823 31.4759 64.8715 36.3249 64.8715C37.5603 64.8715 38.8412 64.7798 40.0765 64.6432ZM75.0289 49.9126V25.0246H83.2184V44.102H94.427V49.9126H75.0289ZM120 50.0036H114.694L114.418 47.5329C113.046 49.1339 110.803 50.5969 106.87 50.5969C100.511 50.5969 94.792 46.4804 94.792 37.7874C94.792 29.8275 99.7789 24.3838 107.875 24.3838C113.869 24.3838 118.673 27.4947 119.679 33.6252H111.902C111.306 31.5663 109.843 30.4682 107.693 30.4682C104.491 30.4682 102.981 33.3963 102.981 37.7425C102.981 41.2651 104.078 44.5138 108.196 44.5138C109.843 44.5138 111.993 43.3702 112.405 41.6313H108.791V36.2781H119.999L120 50.0036Z" fill="#A60031"/>
</svg>
