<svg width="200" height="51" viewBox="0 0 200 51" fill="none" xmlns="http://www.w3.org/2000/svg">
<g clip-path="url(#clip0_155_917)">
<path d="M68.562 16.757C68.8068 16.515 69.0984 16.3255 69.419 16.2C69.7615 16.0678 70.1259 16.0016 70.493 16.005H76.422V13.36H70.693C69.9173 13.3522 69.1465 13.4832 68.417 13.747C67.7554 13.9881 67.149 14.3598 66.634 14.84C66.133 15.3168 65.7331 15.8895 65.458 16.524C64.8888 17.9244 64.8888 19.4917 65.458 20.892C65.7296 21.5285 66.1296 22.1022 66.633 22.577C67.15 23.0534 67.7564 23.4226 68.417 23.663C69.1465 23.9268 69.9173 24.0578 70.693 24.05H76.422V17.591H70.279V19.77H73.793V21.389H70.493C70.1256 21.391 69.7611 21.3231 69.419 21.189C69.1 21.0651 68.8087 20.8792 68.562 20.642C68.3187 20.4003 68.1268 20.1119 67.998 19.794C67.7236 19.0919 67.7236 18.3122 67.998 17.61C68.128 17.2913 68.3197 17.0015 68.562 16.757Z" fill="white"/>
<path d="M90.485 16.524C90.211 15.8894 89.8117 15.3166 89.311 14.84C88.7954 14.3596 88.1883 13.9878 87.526 13.747C86.8025 13.4842 86.0377 13.3532 85.268 13.36H83.7C82.9246 13.3522 82.1542 13.4832 81.425 13.747C80.7631 13.9874 80.1566 14.3592 79.642 14.84C79.1404 15.3165 78.7401 15.8892 78.465 16.524C77.897 17.9246 77.897 19.4914 78.465 20.892C78.7366 21.5286 79.1366 22.1022 79.64 22.577C80.1574 23.0534 80.7641 23.4226 81.425 23.663C82.1541 23.927 82.9246 24.058 83.7 24.05H85.266C86.0358 24.0571 86.8006 23.9261 87.524 23.663C88.1852 23.423 88.792 23.0539 89.309 22.577C89.8127 22.1026 90.2125 21.5289 90.483 20.892C91.0537 19.4919 91.0537 17.9241 90.483 16.524H90.485ZM87.955 19.796C87.831 20.1152 87.6408 20.4045 87.397 20.645C87.1512 20.8819 86.861 21.0679 86.543 21.192C86.2005 21.3258 85.8357 21.3937 85.468 21.392H83.5C83.1273 21.3948 82.7575 21.3269 82.41 21.192C82.0914 21.0679 81.8005 20.882 81.554 20.645C81.3108 20.4044 81.1213 20.1151 80.998 19.796C80.8625 19.448 80.7946 19.0774 80.798 18.704C80.7934 18.3304 80.8631 17.9595 81.003 17.613C81.1326 17.293 81.3247 17.002 81.568 16.757C81.8124 16.515 82.1037 16.3255 82.424 16.2C82.7671 16.0675 83.1322 16.0014 83.5 16.005H85.467C85.8344 16.0018 86.1991 16.068 86.542 16.2C86.8618 16.3264 87.1529 16.5159 87.398 16.757C87.6394 17.0017 87.8286 17.293 87.954 17.613C88.2154 18.3172 88.2154 19.0918 87.954 19.796H87.955Z" fill="white"/>
<path d="M95.326 21.389V13.36H92.533V24.05H101.923V21.389H95.326Z" fill="white"/>
<path d="M114.688 16.524C114.414 15.8893 114.014 15.3166 113.513 14.84C112.997 14.36 112.391 13.9883 111.729 13.747C111.005 13.4842 110.241 13.3531 109.471 13.36H103.309V24.05H109.471C110.241 24.057 111.006 23.926 111.729 23.663C112.39 23.4233 112.997 23.0541 113.513 22.577C114.018 22.1032 114.418 21.5293 114.688 20.892C115.259 19.4919 115.259 17.9241 114.688 16.524ZM112.14 19.796C112.017 20.1151 111.827 20.4044 111.584 20.645C111.34 20.8808 111.052 21.0667 110.737 21.192C110.397 21.3265 110.035 21.3944 109.67 21.392H106.088V16.005H109.67C110.035 16.0017 110.398 16.0696 110.737 16.205C111.056 16.33 111.345 16.52 111.586 16.7629C111.827 17.0059 112.015 17.2964 112.137 17.616C112.4 18.32 112.4 19.095 112.137 19.799L112.14 19.796Z" fill="white"/>
<path d="M132.287 19.505C132.125 19.1197 131.883 18.7729 131.578 18.487C131.265 18.1996 130.899 17.9754 130.501 17.827C130.061 17.6647 129.595 17.5844 129.126 17.59H124.362C124.259 17.594 124.156 17.5764 124.06 17.5384C123.964 17.5003 123.877 17.4426 123.804 17.369C123.66 17.2112 123.584 17.0027 123.593 16.789C123.583 16.6849 123.596 16.5798 123.631 16.4811C123.666 16.3825 123.722 16.2927 123.795 16.2179C123.868 16.1432 123.957 16.0853 124.055 16.0483C124.153 16.0114 124.258 15.9963 124.362 16.004H132.389V13.359H124.229C123.764 13.3551 123.301 13.4323 122.862 13.587C122.462 13.7287 122.096 13.951 121.785 14.24C121.484 14.5268 121.245 14.8732 121.085 15.257C120.913 15.6735 120.827 16.1204 120.832 16.571C120.826 17.0191 120.912 17.4636 121.085 17.877C121.245 18.2561 121.484 18.5969 121.785 18.877C122.098 19.1634 122.464 19.3854 122.862 19.53C123.3 19.6909 123.763 19.7716 124.229 19.768H128.992C129.096 19.7641 129.2 19.7817 129.297 19.8195C129.394 19.8573 129.483 19.9147 129.557 19.988C129.633 20.0678 129.691 20.1622 129.729 20.2653C129.767 20.3685 129.783 20.4783 129.777 20.588C129.785 20.6939 129.771 20.8003 129.734 20.9C129.698 20.9998 129.641 21.0906 129.566 21.1664C129.492 21.2422 129.402 21.3011 129.303 21.3394C129.204 21.3776 129.098 21.3942 128.992 21.388H120.966V24.049H129.126C129.594 24.0542 130.06 23.977 130.502 23.821C130.901 23.6757 131.267 23.4508 131.577 23.16C131.882 22.8704 132.124 22.5207 132.287 22.133C132.459 21.7106 132.544 21.258 132.538 20.802C132.542 20.3573 132.456 19.9163 132.287 19.505Z" fill="white"/>
<path d="M133.526 13.36V16.005H137.507V24.05H140.284V16.005H144.265V13.36H133.526Z" fill="white"/>
<path d="M151.454 14.124C151.164 13.61 150.754 13.36 150.214 13.36H149.548C149.003 13.36 148.597 13.61 148.307 14.124L142.834 24.05H145.892L149.898 16.511L151.86 20.211H149.172L148.012 22.389H153.02L153.92 24.055H156.928L151.454 14.124Z" fill="white"/>
<path d="M167.544 20.914L167.625 20.875C168.275 20.5706 168.826 20.0884 169.213 19.484C169.613 18.8411 169.817 18.0959 169.801 17.339C169.807 16.7826 169.702 16.2307 169.49 15.716C169.292 15.2389 168.993 14.8099 168.615 14.458C168.228 14.1018 167.774 13.8262 167.28 13.647C166.738 13.4511 166.165 13.3539 165.589 13.36H158.2V24.05H160.961V16.005H165.594C165.783 15.9985 165.972 16.03 166.149 16.0977C166.326 16.1654 166.487 16.2678 166.624 16.399C166.892 16.661 167.024 17.017 167.024 17.456C167.024 17.895 166.888 18.25 166.624 18.511C166.488 18.6434 166.327 18.747 166.15 18.8158C165.973 18.8845 165.784 18.9169 165.594 18.911H161.93V21.305H164.46L166.626 24.054H170.242L167.544 20.914Z" fill="white"/>
<path d="M183.885 14.124C183.595 13.61 183.19 13.36 182.646 13.36H181.979C181.434 13.36 181.028 13.61 180.74 14.124L175.265 24.05H178.323L182.329 16.511L184.291 20.211H181.6L180.44 22.389H185.447L186.347 24.055H189.355L183.885 14.124Z" fill="white"/>
<path d="M192.641 16.757C192.887 16.5171 193.179 16.3294 193.5 16.205C193.843 16.0729 194.208 16.0067 194.575 16.01H200V13.365H194.772C193.997 13.3571 193.227 13.4881 192.498 13.752C191.835 13.9924 191.228 14.3641 190.713 14.845C190.212 15.3215 189.812 15.8943 189.537 16.529C188.967 17.9292 188.967 19.4968 189.537 20.897C189.807 21.5341 190.208 22.108 190.712 22.582C191.229 23.0587 191.836 23.4278 192.497 23.668C193.226 23.932 193.996 24.0631 194.771 24.055H200V21.394H194.572C194.204 21.3958 193.839 21.3279 193.497 21.194C193.179 21.0701 192.889 20.8842 192.643 20.647C192.398 20.406 192.206 20.1174 192.077 19.799C191.803 19.0969 191.803 18.3172 192.077 17.615C192.206 17.2946 192.398 17.0029 192.641 16.757Z" fill="white"/>
<path d="M65 28.153V36.947H67.286V28.153H65ZM71.674 28.153V31.427H68.193V33.494H71.674V36.947H73.96V28.153H71.674Z" fill="#FFCE00"/>
<path d="M77.865 34.758V30.328H84.017V28.153H75.579V36.947H84.031V34.758H77.865ZM78.771 31.633V33.426H83.922V31.633H78.771Z" fill="#FFCE00"/>
<path d="M92.068 28.781C91.831 28.358 91.497 28.153 91.049 28.153H90.5C90.051 28.153 89.718 28.358 89.48 28.781L84.98 36.947H87.496L90.796 30.747L92.4 33.784H90.192L89.238 35.577H93.357L94.097 36.947H96.572L92.068 28.781Z" fill="#FFCE00"/>
<path d="M95.38 28.153V30.328H98.655V36.947H100.941V30.328H104.216V28.153H95.38Z" fill="#FFCE00"/>
<path d="M105.357 28.153V36.947H107.642V28.153H105.357Z" fill="#FFCE00"/>
<path d="M116.607 28.153V33.433L112.307 28.792C112.216 28.6923 112.119 28.5978 112.017 28.509C111.926 28.4301 111.825 28.3629 111.717 28.309C111.604 28.2536 111.484 28.2136 111.36 28.19C111.206 28.1622 111.049 28.1491 110.892 28.151H110.316C109.607 28.151 109.263 28.463 109.263 29.108V36.945H111.48V31.145L116.168 36.211C116.343 36.4267 116.547 36.6175 116.774 36.778C116.994 36.9019 117.245 36.9605 117.497 36.947H117.976C118.538 36.947 118.811 36.664 118.811 36.085V28.153H116.607Z" fill="#FFCE00"/>
<path d="M123.034 30.947C123.234 30.7483 123.472 30.5925 123.734 30.489C124.016 30.3801 124.316 30.3255 124.618 30.328H129.5V28.153H124.786C124.148 28.146 123.515 28.2537 122.915 28.471C122.37 28.6691 121.871 28.9752 121.447 29.371C121.035 29.7634 120.706 30.2348 120.48 30.757C120.012 31.9089 120.012 33.198 120.48 34.35C120.703 34.8739 121.032 35.3458 121.447 35.736C121.872 36.1282 122.371 36.432 122.915 36.63C123.515 36.8468 124.148 36.9545 124.786 36.948H129.5V31.634H124.445V33.427H127.337V34.759H124.622C124.32 34.7608 124.02 34.7059 123.738 34.597C123.477 34.4946 123.239 34.3417 123.038 34.147C122.837 33.9475 122.679 33.7093 122.573 33.447C122.347 32.8683 122.347 32.2257 122.573 31.647C122.68 31.3858 122.836 31.148 123.034 30.947Z" fill="#FFCE00"/>
<path d="M143.9 33.205C143.767 32.8881 143.569 32.6028 143.318 32.368C143.06 32.1315 142.76 31.9471 142.432 31.825C142.07 31.6918 141.686 31.6257 141.3 31.63H137.38C137.295 31.6332 137.21 31.6186 137.131 31.5873C137.052 31.556 136.981 31.5085 136.921 31.448C136.862 31.3837 136.817 31.3085 136.787 31.2267C136.757 31.1448 136.744 31.0579 136.748 30.971C136.742 30.8833 136.755 30.7955 136.785 30.713C136.815 30.6305 136.862 30.5552 136.923 30.492C137.047 30.3781 137.212 30.3181 137.38 30.325H143.98V28.15H137.27C136.887 28.1468 136.506 28.21 136.145 28.337C135.816 28.4531 135.515 28.6359 135.26 28.874C135.012 29.1102 134.816 29.3952 134.683 29.711C134.542 30.0538 134.472 30.4214 134.476 30.792C134.471 31.1606 134.542 31.5264 134.683 31.867C134.816 32.1783 135.012 32.4586 135.259 32.69C135.517 32.9252 135.818 33.1076 136.146 33.227C136.506 33.3608 136.886 33.4286 137.27 33.427H141.189C141.275 33.4238 141.36 33.4383 141.44 33.4694C141.52 33.5005 141.593 33.5477 141.654 33.608C141.716 33.6732 141.764 33.7504 141.795 33.8348C141.826 33.9193 141.84 34.0091 141.835 34.099C141.842 34.1862 141.83 34.2738 141.8 34.3561C141.77 34.4383 141.723 34.5132 141.662 34.5757C141.601 34.6383 141.527 34.687 141.445 34.7186C141.364 34.7502 141.276 34.7639 141.189 34.759H134.589V36.948H141.3C141.685 36.9527 142.069 36.889 142.432 36.76C142.761 36.6409 143.063 36.4561 143.318 36.217C143.568 35.9783 143.766 35.6906 143.9 35.372C144.043 35.0248 144.114 34.6523 144.108 34.277C144.112 33.9092 144.041 33.5445 143.9 33.205Z" fill="#FFCE00"/>
<path d="M147.683 34.758V30.328H153.836V28.153H145.4V36.947H153.851V34.758H147.683ZM148.591 31.633V33.426H153.74V31.633H148.591Z" fill="#FFCE00"/>
<path d="M163.051 34.367L163.117 34.335C163.653 34.0855 164.106 33.6883 164.423 33.19C164.753 32.6617 164.921 32.0486 164.908 31.426C164.913 30.9683 164.826 30.5143 164.652 30.091C164.489 29.6986 164.244 29.3456 163.933 29.056C163.614 28.7631 163.24 28.5364 162.833 28.389C162.387 28.2275 161.915 28.1476 161.44 28.153H155.36V36.947H157.632V30.328H161.442C161.759 30.328 162.062 30.4538 162.286 30.6777C162.51 30.9016 162.636 31.2053 162.636 31.522C162.636 31.8386 162.51 32.1423 162.286 32.3662C162.062 32.5902 161.759 32.716 161.442 32.716H158.429V34.686H160.51L162.293 36.947H165.267L163.051 34.367Z" fill="#FFCE00"/>
<path d="M173.878 28.153L170.651 34.246L167.425 28.153H164.854L169.354 36.318C169.574 36.742 169.907 36.947 170.373 36.947H170.922C171.369 36.947 171.698 36.741 171.922 36.319L176.44 28.153H173.878Z" fill="#FFCE00"/>
<path d="M177.491 28.153V36.947H179.777V28.153H177.491Z" fill="#FFCE00"/>
<path d="M184.013 30.947C184.213 30.7486 184.451 30.5928 184.713 30.489C184.995 30.3801 185.295 30.3255 185.597 30.328H190.062V28.153H185.762C185.124 28.1461 184.49 28.2538 183.89 28.471C183.345 28.669 182.846 28.9752 182.423 29.371C182.011 29.7634 181.682 30.2348 181.456 30.757C180.988 31.9089 180.988 33.198 181.456 34.35C181.679 34.8739 182.008 35.3458 182.423 35.736C182.848 36.1284 183.347 36.4323 183.89 36.63C184.49 36.8467 185.124 36.9544 185.762 36.948H190.062V34.759H185.6C185.298 34.7608 184.998 34.7059 184.716 34.597C184.455 34.4942 184.218 34.3414 184.016 34.147C183.816 33.9471 183.658 33.7091 183.552 33.447C183.326 32.8683 183.326 32.2257 183.552 31.647C183.659 31.3859 183.815 31.1482 184.013 30.947Z" fill="#FFCE00"/>
<path d="M193.809 34.758V30.328H199.962V28.153H191.523V36.947H199.975V34.758H193.809ZM194.716 31.633V33.426H199.865V31.633H194.716Z" fill="#FFCE00"/>
<path d="M44.677 25.174H44.713C44.713 16.291 38.013 8.94399 29.397 7.92499V11.654C35.966 12.647 41.017 18.332 41.017 25.174H40.981C40.981 32.016 35.93 37.701 29.362 38.694V42.423C37.975 41.405 44.677 34.056 44.677 25.174Z" fill="#FFCE00"/>
<path d="M47.3 14.334C47.1994 14.4772 47.1366 14.6434 47.1172 14.8173C47.0978 14.9912 47.1225 15.1672 47.189 15.329L49.2 20.343C49.2742 20.5319 49.3992 20.6967 49.5612 20.819C49.7232 20.9413 49.9159 21.0164 50.118 21.036C50.2925 21.0497 50.4675 21.0192 50.6271 20.9473C50.7867 20.8755 50.9256 20.7646 51.031 20.625L54.263 16.412C54.379 16.2652 54.4551 16.091 54.484 15.9061C54.5129 15.7213 54.4936 15.5322 54.428 15.357C54.3611 15.1845 54.2497 15.0329 54.1051 14.9175C53.9606 14.8021 53.788 14.727 53.605 14.7L48.36 13.9C48.1604 13.8668 47.9556 13.8899 47.7684 13.9665C47.5812 14.0432 47.419 14.1704 47.3 14.334Z" fill="#FFCE00"/>
<path d="M42.552 6.37397L42.432 1.06599C42.4304 0.878928 42.3806 0.695434 42.2874 0.533228C42.1942 0.371021 42.0608 0.235582 41.9 0.13999C41.7401 0.0471768 41.5584 -0.00170898 41.3735 -0.00170898C41.1886 -0.00170898 41.0069 0.0471768 40.847 0.13999L36.255 2.80498C36.0782 2.90428 35.9325 3.05095 35.8345 3.22849C35.7364 3.40604 35.6899 3.60742 35.7 3.80999C35.7111 3.98454 35.766 4.15347 35.8597 4.30117C35.9534 4.44887 36.0828 4.57057 36.236 4.65498L40.948 7.30498C41.124 7.40664 41.3248 7.45723 41.528 7.45105C41.7311 7.44487 41.9285 7.38215 42.098 7.26997C42.2431 7.17098 42.3607 7.03694 42.4401 6.8803C42.5195 6.72365 42.558 6.54948 42.552 6.37397Z" fill="#FFCE00"/>
<path d="M49.167 29.964L47.151 34.978C47.0845 35.1398 47.0598 35.3158 47.0792 35.4897C47.0986 35.6636 47.1615 35.8298 47.262 35.973C47.3812 36.1375 47.5439 36.2656 47.7319 36.3428C47.9198 36.42 48.1256 36.4433 48.326 36.41L53.571 35.61C53.754 35.5831 53.9266 35.508 54.0712 35.3926C54.2158 35.2772 54.3272 35.1255 54.394 34.953C54.4596 34.7778 54.4789 34.5887 54.45 34.4038C54.4211 34.219 54.345 34.0448 54.229 33.898L51 29.682C50.8945 29.5425 50.7555 29.4317 50.596 29.3599C50.4365 29.2881 50.2614 29.2575 50.087 29.271C49.8843 29.2892 49.6907 29.3637 49.5281 29.4862C49.3655 29.6087 49.2404 29.7742 49.167 29.964Z" fill="#FFCE00"/>
<path d="M41.864 50.167C42.0248 50.0713 42.1583 49.9358 42.2516 49.7737C42.3449 49.6115 42.395 49.4281 42.397 49.241L42.517 43.933C42.5221 43.7581 42.483 43.5847 42.4035 43.4288C42.324 43.2729 42.2066 43.1396 42.062 43.041C41.8928 42.9286 41.6955 42.8657 41.4925 42.8595C41.2894 42.8533 41.0887 42.9041 40.913 43.006L36.2 45.651C36.0468 45.7358 35.9174 45.8577 35.8236 46.0055C35.7298 46.1533 35.6745 46.3223 35.663 46.497C35.6526 46.7001 35.6991 46.9021 35.7974 47.0802C35.8956 47.2583 36.0416 47.4054 36.219 47.505L40.811 50.164C40.9706 50.2575 41.1521 50.3071 41.3371 50.3076C41.5221 50.3082 41.7039 50.2596 41.864 50.167Z" fill="#FFCE00"/>
<path d="M25.256 11.654V7.92498C23.4093 8.14333 21.61 8.65899 19.928 9.45198L18.837 7.61897C18.8669 7.54604 18.892 7.47121 18.912 7.39497L19.971 3.20598C20.024 2.99553 20.035 2.7767 20.0034 2.56199C19.9718 2.34728 19.8982 2.14091 19.7867 1.95469C19.6752 1.76847 19.5282 1.60604 19.3539 1.47671C19.1796 1.34738 18.9815 1.25368 18.771 1.20098C18.5605 1.14795 18.3417 1.13693 18.127 1.16856C17.9123 1.20018 17.7059 1.27383 17.5197 1.38528C17.3335 1.49673 17.1711 1.64381 17.0417 1.81809C16.9124 1.99238 16.8187 2.19045 16.766 2.40098L16.456 3.62698L14.82 0.876979C14.7092 0.69063 14.5627 0.527943 14.389 0.398195C14.2153 0.268447 14.0177 0.174172 13.8076 0.120778C13.5974 0.0673841 13.3788 0.055924 13.1643 0.0870134C12.9497 0.118103 12.7433 0.19114 12.557 0.301979C12.3706 0.412812 12.208 0.559275 12.0782 0.732985C11.9485 0.906695 11.8542 1.10424 11.8008 1.31438C11.7474 1.52452 11.7359 1.74314 11.767 1.95772C11.7981 2.17229 11.8712 2.37865 11.982 2.56499L13.633 5.34099L12.282 5.09397C11.8513 5.01522 11.4069 5.11079 11.0467 5.35964C10.6864 5.6085 10.4398 5.99027 10.361 6.42097C10.2822 6.85168 10.3778 7.29605 10.6267 7.6563C10.8755 8.01655 11.2573 8.26321 11.688 8.34199L15.747 9.08399C15.788 9.09099 15.83 9.09598 15.871 9.10098L17.086 11.143C14.817 12.7995 12.9806 14.9783 11.732 17.495L9.58 16.695C9.55836 16.6194 9.53129 16.5456 9.499 16.474L7.699 12.545C7.51654 12.1469 7.18347 11.8375 6.773 11.6849C6.36252 11.5322 5.90824 11.5488 5.51 11.731C5.31282 11.8211 5.13533 11.9492 4.9877 12.108C4.84006 12.2668 4.72515 12.4531 4.64956 12.6563C4.57396 12.8595 4.53915 13.0756 4.54712 13.2923C4.55509 13.5089 4.60568 13.7219 4.696 13.919L5.222 15.07L2.222 13.95C2.01884 13.8742 1.80275 13.8392 1.58606 13.8469C1.36937 13.8546 1.15632 13.905 0.959085 13.995C0.76185 14.0851 0.584291 14.2132 0.436544 14.3719C0.288798 14.5306 0.173759 14.7168 0.0979977 14.92C-0.0551118 15.3301 -0.0390409 15.7843 0.142675 16.1826C0.324392 16.581 0.656873 16.8908 1.067 17.044L4.093 18.173L2.885 18.827C2.69431 18.9302 2.52582 19.07 2.38915 19.2383C2.25248 19.4066 2.1503 19.6002 2.08845 19.808C2.02661 20.0159 2.00631 20.2338 2.02871 20.4495C2.05111 20.6652 2.11577 20.8743 2.219 21.065C2.36066 21.3269 2.57048 21.5456 2.82625 21.698C3.08203 21.8505 3.37424 21.931 3.672 21.931C3.94629 21.9312 4.21623 21.8624 4.457 21.731L8.085 19.767C8.122 19.747 8.157 19.725 8.191 19.703L10.552 20.584C10.1409 22.0827 9.93302 23.6299 9.934 25.184C9.93324 26.727 10.1384 28.2632 10.544 29.752L8.192 30.631C8.157 30.608 8.122 30.586 8.085 30.566L4.457 28.602C4.26632 28.4987 4.05718 28.4341 3.84151 28.4117C3.62584 28.3893 3.40787 28.4096 3.20005 28.4714C2.99223 28.5333 2.79863 28.6354 2.6303 28.7721C2.46197 28.9088 2.32221 29.0773 2.219 29.268C2.11577 29.4586 2.05111 29.6678 2.02871 29.8835C2.00631 30.0991 2.02661 30.3171 2.08845 30.5249C2.1503 30.7327 2.25248 30.9263 2.38915 31.0947C2.52582 31.263 2.69431 31.4028 2.885 31.506L4.093 32.16L1.067 33.289C0.656873 33.4422 0.324392 33.752 0.142675 34.1503C-0.0390409 34.5486 -0.0551118 35.0028 0.0979977 35.413C0.215512 35.7284 0.4267 36.0004 0.703222 36.1924C0.979744 36.3843 1.30837 36.4872 1.645 36.487C1.84176 36.4884 2.03718 36.4545 2.222 36.387L5.222 35.268L4.7 36.405C4.60968 36.6021 4.55909 36.8151 4.55112 37.0317C4.54315 37.2484 4.57796 37.4645 4.65355 37.6677C4.72915 37.8709 4.84406 38.0572 4.9917 38.2159C5.13934 38.3747 5.31682 38.5028 5.514 38.593C5.72919 38.6918 5.9632 38.743 6.2 38.743C6.51604 38.7426 6.82535 38.6516 7.09122 38.4807C7.3571 38.3099 7.56838 38.0663 7.7 37.779L9.5 33.851C9.53198 33.7792 9.55904 33.7054 9.581 33.63L11.72 32.83C12.9662 35.3528 14.8029 37.5377 17.074 39.199L15.874 41.219C15.833 41.219 15.791 41.229 15.75 41.237L11.691 41.978C11.2603 42.0568 10.8785 42.3034 10.6297 42.6637C10.3808 43.0239 10.2852 43.4683 10.364 43.899C10.4332 44.2789 10.6334 44.6225 10.9298 44.87C11.2261 45.1176 11.5999 45.2535 11.986 45.254C12.0866 45.2539 12.187 45.2449 12.286 45.227L13.637 44.98L11.986 47.755C11.8752 47.9413 11.8021 48.1477 11.771 48.3623C11.7399 48.5768 11.7514 48.7954 11.8048 49.0056C11.8582 49.2157 11.9525 49.4133 12.0822 49.587C12.212 49.7607 12.3746 49.9071 12.561 50.018C12.8153 50.1706 13.1064 50.2511 13.403 50.251C13.6895 50.2513 13.9712 50.1771 14.2203 50.0356C14.4695 49.8941 14.6775 49.6902 14.824 49.444L16.46 46.693L16.77 47.919C16.8601 48.2751 17.0663 48.5912 17.3561 48.817C17.6458 49.0428 18.0026 49.1656 18.37 49.166C18.5069 49.1662 18.6434 49.149 18.776 49.115C19.2001 49.0085 19.5646 48.7381 19.7896 48.3631C20.0146 47.9882 20.0816 47.5393 19.976 47.115L18.917 42.926C18.8973 42.8493 18.8722 42.7741 18.842 42.701L19.918 40.893C21.6043 41.6901 23.4087 42.2085 25.261 42.428V38.699C18.692 37.706 13.641 32.021 13.641 25.179C13.641 18.337 18.687 12.647 25.256 11.654Z" fill="white"/>
<path d="M27.53 24.284C27.4144 24.284 27.2999 24.3068 27.1932 24.3511C27.0864 24.3954 26.9894 24.4603 26.9077 24.5422C26.8261 24.624 26.7614 24.7211 26.7173 24.828C26.6733 24.9349 26.6507 25.0494 26.651 25.165C26.651 25.3982 26.7436 25.6219 26.9084 25.7869C27.0732 25.9519 27.2968 26.0447 27.53 26.045C27.7636 26.045 27.9876 25.9523 28.153 25.7874C28.3183 25.6224 28.4115 25.3986 28.412 25.165C28.412 25.0492 28.3892 24.9346 28.3448 24.8276C28.3005 24.7207 28.2355 24.6235 28.1536 24.5417C28.0717 24.4599 27.9745 24.395 27.8675 24.3508C27.7605 24.3066 27.6458 24.2839 27.53 24.284Z" fill="white"/>
<path d="M36.744 24.063C36.419 22.663 35.361 19.184 33.007 19.97C31.576 20.447 30.499 21.31 29.775 22.07C29.4419 22.416 29.1376 22.7885 28.865 23.184C28.5886 22.9983 28.2767 22.872 27.949 22.813C28.2292 22.091 28.5912 21.4035 29.028 20.764C29.282 20.394 29.536 20.079 29.772 19.797C30.482 18.948 31.038 18.397 30.966 17.597C30.9332 17.2175 30.7756 16.8595 30.518 16.579C30.3113 16.3712 30.0515 16.2242 29.767 16.154C29.591 16.1104 29.4117 16.0813 29.231 16.067C28.231 15.975 26.173 15.899 25.011 16.697C24.7425 16.8713 24.5237 17.1121 24.3756 17.3959C24.2276 17.6798 24.1554 17.997 24.166 18.317C24.1782 19.5362 24.4701 20.7363 25.019 21.825C25.2841 22.3675 25.6045 22.8812 25.975 23.358C25.7806 23.5248 25.6142 23.7216 25.482 23.941C25.317 23.814 25.164 23.688 25.021 23.564C24.5766 23.1765 24.1679 22.7497 23.8 22.289C22.674 20.889 22.381 19.739 21.32 19.521C20.9482 19.4446 20.5617 19.4928 20.22 19.658C19.694 19.929 19.48 20.449 19.359 20.744C18.819 22.074 17.681 25.528 20.059 26.244C22.135 26.869 24.065 26.42 25.032 26.097C25.132 26.064 25.22 26.032 25.298 26.003C25.4137 26.3151 25.594 26.5993 25.827 26.837C25.55 27.019 25.284 27.178 25.033 27.313C24.6248 27.534 24.2018 27.7264 23.767 27.889C22.086 28.513 20.897 28.428 20.357 29.365C20.1656 29.6942 20.0879 30.0772 20.136 30.455C20.227 31.039 20.653 31.408 20.894 31.614C21.715 32.314 23.565 33.714 25.041 33.508C25.3016 33.4718 25.5515 33.3803 25.7739 33.2395C25.9962 33.0988 26.1858 32.9121 26.33 32.692C27.761 30.663 27.796 28.369 27.755 27.546C28.0272 27.5234 28.2931 27.4519 28.54 27.335C28.783 28.0844 28.9374 28.8596 29 29.645C29.139 31.433 28.732 32.545 29.486 33.329C29.5793 33.4232 29.6826 33.507 29.794 33.579C29.9979 33.716 30.2305 33.8043 30.474 33.837C31.06 33.909 31.531 33.601 31.796 33.425C32.996 32.631 35.881 30.425 34.321 28.492C32.821 26.631 30.721 25.948 29.856 25.734C29.9024 25.5472 29.9255 25.3554 29.925 25.163C29.925 25.101 29.925 25.041 29.918 24.981C30.6986 25.0156 31.4725 25.1411 32.224 25.355C33.947 25.849 34.852 26.623 35.845 26.19C36.1948 26.0391 36.4846 25.7763 36.669 25.443C36.939 24.921 36.815 24.372 36.744 24.063ZM27.53 26.982C27.0484 26.9814 26.5866 26.7898 26.2461 26.4491C25.9057 26.1085 25.7143 25.6466 25.714 25.165C25.714 24.6832 25.9053 24.2211 26.2458 23.8802C26.5863 23.5393 27.0482 23.3475 27.53 23.347C28.0122 23.3472 28.4745 23.5388 28.8156 23.8797C29.1566 24.2205 29.3485 24.6828 29.349 25.165C29.3479 25.6469 29.1559 26.1088 28.8149 26.4493C28.474 26.7899 28.0119 26.9815 27.53 26.982Z" fill="white"/>
</g>
<defs>
<clipPath id="clip0_155_917">
<rect width="200" height="50.307" fill="white"/>
</clipPath>
</defs>
</svg>
