<svg width="380" height="291" viewBox="0 0 380 291" fill="none" xmlns="http://www.w3.org/2000/svg">
<g clip-path="url(#clip0_162_894)">
<path d="M10.0264 233.613C10.7147 232.931 11.5358 232.397 12.4387 232.045C13.4018 231.668 14.4276 231.477 15.4618 231.482H32.1508V224.04H16.0247C13.8412 224.016 11.6713 224.385 9.61823 225.129C7.75555 225.805 6.04854 226.851 4.59941 228.203C3.18919 229.546 2.06346 231.159 1.28918 232.946C-0.313029 236.887 -0.313029 241.299 1.28918 245.241C2.05357 247.032 3.17953 248.647 4.59659 249.984C6.0533 251.323 7.75972 252.362 9.61823 253.041C11.6716 253.783 13.8413 254.152 16.0247 254.13H32.1508V235.949H14.8594V242.08H24.7507V246.637H15.4618C14.4275 246.642 13.4016 246.451 12.4387 246.074C11.5396 245.727 10.7193 245.204 10.0264 244.534C9.34081 243.856 8.80065 243.044 8.43882 242.15C7.66642 240.174 7.66642 237.979 8.43882 236.003C8.80613 235.11 9.34556 234.298 10.0264 233.613Z" fill="white"/>
<path d="M71.7355 232.968C70.9643 231.181 69.8403 229.568 68.431 228.225C66.9802 226.873 65.2712 225.827 63.4065 225.151C61.3703 224.41 59.2174 224.041 57.0507 224.062H52.637C50.4544 224.039 48.2854 224.408 46.2333 225.151C44.3695 225.826 42.6621 226.871 41.2145 228.225C39.8026 229.567 38.6758 231.181 37.9015 232.968C36.3025 236.911 36.3025 241.321 37.9015 245.263C38.6659 247.055 39.7918 248.67 41.2089 250.006C42.6666 251.345 44.3739 252.384 46.2333 253.063C48.2851 253.809 50.454 254.181 52.637 254.161H57.045C59.2118 254.181 61.3645 253.812 63.4009 253.072C65.2613 252.395 66.9691 251.356 68.4253 250.015C69.8432 248.679 70.9684 247.064 71.7299 245.272C73.3363 241.331 73.3363 236.918 71.7299 232.977L71.7355 232.968ZM64.6141 242.175C64.2663 243.075 63.7308 243.889 63.0434 244.565C62.3531 245.234 61.5357 245.757 60.6395 246.105C59.6754 246.482 58.6487 246.673 57.6136 246.668H52.0741C51.025 246.676 49.9839 246.485 49.0059 246.105C48.108 245.758 47.2888 245.234 46.5964 244.565C45.9107 243.889 45.3772 243.074 45.0314 242.175C44.6499 241.197 44.4589 240.155 44.4684 239.104C44.4554 238.053 44.6516 237.009 45.0455 236.034C45.4104 235.133 45.951 234.314 46.6358 233.624C47.3232 232.942 48.1433 232.408 49.0453 232.056C50.0075 231.679 51.0323 231.488 52.0656 231.493H57.6024C58.6375 231.489 59.6641 231.68 60.6283 232.056C61.532 232.404 62.3527 232.938 63.0372 233.623C63.7218 234.308 64.2552 235.13 64.6028 236.034C65.3385 238.015 65.3385 240.194 64.6028 242.175H64.6141Z" fill="white"/>
<path d="M85.3621 246.659V224.062H77.5003V254.161H103.931V246.668L85.3621 246.659Z" fill="white"/>
<path d="M139.863 232.968C139.09 231.181 137.965 229.568 136.555 228.225C135.104 226.874 133.397 225.829 131.533 225.151C129.497 224.41 127.344 224.041 125.178 224.062H107.833V254.161H125.178C127.344 254.181 129.497 253.812 131.533 253.072C133.394 252.397 135.101 251.358 136.555 250.015C137.976 248.681 139.102 247.066 139.863 245.272C141.469 241.331 141.469 236.918 139.863 232.977V232.968ZM132.69 242.175C132.345 243.074 131.811 243.889 131.125 244.565C130.44 245.231 129.63 245.755 128.741 246.105C127.785 246.483 126.766 246.675 125.738 246.668H115.655V231.513H125.738C126.766 231.505 127.786 231.696 128.741 232.076C129.638 232.429 130.451 232.964 131.13 233.648C131.808 234.333 132.337 235.151 132.682 236.05C133.421 238.031 133.421 240.212 132.682 242.192L132.69 242.175Z" fill="white"/>
<path d="M189.4 241.359C188.943 240.275 188.264 239.3 187.405 238.497C186.523 237.688 185.494 237.056 184.373 236.636C183.134 236.181 181.823 235.956 180.503 235.972H167.093C166.802 235.982 166.512 235.932 166.242 235.825C165.971 235.717 165.726 235.554 165.522 235.347C165.32 235.127 165.164 234.87 165.062 234.59C164.96 234.31 164.914 234.012 164.928 233.714C164.901 233.421 164.938 233.125 165.036 232.848C165.135 232.571 165.293 232.318 165.499 232.108C165.705 231.897 165.954 231.734 166.229 231.63C166.505 231.526 166.799 231.483 167.093 231.505H189.688V224.062H166.719C165.408 224.05 164.106 224.267 162.871 224.704C161.746 225.103 160.714 225.727 159.839 226.539C158.992 227.348 158.321 228.324 157.869 229.405C157.384 230.577 157.142 231.835 157.157 233.103C157.14 234.365 157.383 235.616 157.869 236.779C158.32 237.846 158.992 238.805 159.839 239.594C160.72 240.399 161.75 241.022 162.871 241.43C164.102 241.884 165.406 242.111 166.719 242.099H180.126C180.419 242.089 180.711 242.139 180.985 242.245C181.258 242.352 181.507 242.513 181.716 242.719C181.929 242.943 182.093 243.209 182.2 243.499C182.306 243.79 182.352 244.099 182.335 244.408C182.359 244.706 182.319 245.006 182.217 245.287C182.115 245.568 181.954 245.824 181.744 246.038C181.535 246.251 181.282 246.417 181.002 246.524C180.723 246.632 180.424 246.678 180.126 246.659H157.534V254.161H180.503C181.822 254.176 183.133 253.958 184.376 253.516C185.499 253.107 186.529 252.475 187.402 251.659C188.26 250.843 188.94 249.859 189.4 248.768C189.883 247.578 190.123 246.305 190.107 245.021C190.119 243.766 189.878 242.52 189.4 241.359Z" fill="white"/>
<path d="M192.888 224.062V231.504H204.094V254.161H211.911V231.513H223.116V224.071L192.888 224.062Z" fill="white"/>
<path d="M243.352 226.213C242.536 224.766 241.382 224.062 239.862 224.062H237.987C236.453 224.062 235.31 224.766 234.494 226.213L219.088 254.161H227.696L238.972 232.937L244.495 243.338H236.929L233.663 249.471H247.76L250.293 254.161H258.76L243.352 226.213Z" fill="white"/>
<path d="M288.642 245.325L288.87 245.213C290.702 244.358 292.252 243 293.34 241.297C294.465 239.488 295.04 237.392 294.995 235.262C295.014 233.696 294.716 232.142 294.12 230.694C293.562 229.351 292.722 228.143 291.657 227.153C290.568 226.15 289.291 225.374 287.899 224.87C286.374 224.317 284.762 224.043 283.139 224.062H262.341V254.161H270.112V231.513H283.153C283.695 231.486 284.236 231.574 284.741 231.77C285.246 231.967 285.704 232.268 286.084 232.653C286.465 233.038 286.761 233.5 286.951 234.007C287.142 234.515 287.223 235.056 287.19 235.597C287.19 236.833 286.807 237.835 286.064 238.57C285.681 238.942 285.227 239.234 284.729 239.428C284.231 239.621 283.699 239.712 283.165 239.696H272.851V246.437H279.973L286.07 254.175H296.248L288.642 245.325Z" fill="white"/>
<path d="M334.639 226.213C333.823 224.766 332.683 224.062 331.152 224.062H329.274C327.74 224.062 326.597 224.766 325.787 226.213L310.376 254.161H318.983L330.259 232.937L335.782 243.338H328.207L324.942 249.471H339.036L341.569 254.161H350.036L334.639 226.213Z" fill="white"/>
<path d="M359.286 233.613C359.975 232.932 360.794 232.399 361.695 232.045C362.659 231.668 363.686 231.477 364.721 231.482H380V224.04H365.284C363.102 224.016 360.934 224.385 358.883 225.129C357.018 225.803 355.309 226.849 353.859 228.203C352.448 229.545 351.322 231.158 350.549 232.946C348.944 236.887 348.944 241.299 350.549 245.241C351.31 247.034 352.436 248.649 353.856 249.984C355.314 251.332 357.024 252.379 358.889 253.063C360.94 253.806 363.108 254.175 365.29 254.152H380V246.659H364.721C363.686 246.664 362.659 246.473 361.695 246.096C360.799 245.75 359.981 245.226 359.291 244.557C358.602 243.88 358.06 243.068 357.698 242.173C356.926 240.196 356.926 238.001 357.698 236.025C358.063 235.124 358.603 234.304 359.286 233.613Z" fill="white"/>
<path d="M0 265.702V290.472H6.43466V265.702H0ZM18.7861 265.702V274.92H8.9877V280.738H18.7861V290.458H25.2207V265.688L18.7861 265.702Z" fill="#FFCE00"/>
<path d="M36.2126 284.279V271.813H53.5293V265.702H29.7779V290.472H53.5687V284.279H36.2126ZM38.7628 275.486V280.53H53.2619V275.497L38.7628 275.486Z" fill="#FFCE00"/>
<path d="M76.1914 267.469C75.5243 266.279 74.5841 265.699 73.3231 265.699H71.7778C70.5139 265.699 69.5766 266.279 68.9067 267.469L56.24 290.455H63.3221L72.611 273.003L77.1569 281.56H70.9108L68.2255 286.604H79.8197L81.9026 290.464H88.8693L76.1914 267.469Z" fill="#FFCE00"/>
<path d="M85.5141 265.702V271.827H94.7326V290.458H101.167V271.827H110.386V265.702H85.5141Z" fill="#FFCE00"/>
<path d="M113.597 265.702V290.472H120.029V265.702H113.597Z" fill="#FFCE00"/>
<path d="M145.264 265.702V280.567L133.16 267.5C132.904 267.221 132.631 266.956 132.344 266.707C132.087 266.485 131.803 266.295 131.5 266.144C131.181 265.988 130.843 265.875 130.495 265.809C130.06 265.729 129.619 265.692 129.177 265.696H127.556C125.56 265.696 124.592 266.577 124.592 268.393V290.452H130.833V274.126L144.028 288.386C144.522 288.994 145.096 289.531 145.734 289.982C146.354 290.33 147.06 290.495 147.769 290.458H149.118C150.7 290.458 151.468 289.661 151.468 288.032V265.702H145.264Z" fill="#FFCE00"/>
<path d="M163.355 273.566C163.917 273.007 164.588 272.568 165.325 272.277C166.119 271.971 166.963 271.817 167.814 271.824H181.556V265.702H168.287C166.491 265.683 164.708 265.987 163.02 266.6C161.487 267.158 160.081 268.02 158.888 269.133C157.729 270.233 156.804 271.555 156.166 273.02C154.849 276.264 154.849 279.893 156.166 283.137C156.794 284.611 157.721 285.94 158.888 287.038C160.085 288.141 161.49 288.995 163.02 289.552C164.707 290.164 166.491 290.468 168.287 290.449H181.556V275.497H167.327V280.541H175.467V284.279H167.825C166.974 284.286 166.13 284.131 165.337 283.823C164.603 283.535 163.933 283.105 163.366 282.557C162.8 281.996 162.355 281.325 162.057 280.586C161.421 278.957 161.421 277.149 162.057 275.52C162.359 274.79 162.8 274.127 163.355 273.566Z" fill="#FFCE00"/>
<path d="M222.089 279.931C221.715 279.039 221.157 278.236 220.451 277.575C219.726 276.908 218.879 276.389 217.957 276.046C216.937 275.67 215.857 275.484 214.77 275.497H203.736C203.497 275.506 203.259 275.465 203.036 275.377C202.814 275.289 202.612 275.155 202.444 274.985C202.111 274.619 201.936 274.137 201.957 273.642C201.934 273.401 201.963 273.157 202.043 272.929C202.124 272.7 202.253 272.492 202.423 272.318C202.593 272.145 202.798 272.011 203.025 271.926C203.252 271.84 203.495 271.805 203.736 271.824H222.314V265.702H203.427C202.348 265.692 201.277 265.871 200.26 266.231C199.334 266.558 198.486 267.072 197.769 267.742C197.07 268.407 196.517 269.209 196.145 270.098C195.749 271.063 195.551 272.098 195.562 273.141C195.549 274.178 195.747 275.207 196.145 276.164C196.518 277.042 197.07 277.832 197.766 278.484C198.492 279.145 199.34 279.658 200.263 279.992C201.274 280.371 202.347 280.561 203.427 280.555H214.458C214.699 280.547 214.94 280.588 215.165 280.676C215.39 280.763 215.595 280.896 215.767 281.065C215.941 281.249 216.076 281.467 216.163 281.705C216.251 281.943 216.289 282.197 216.276 282.45C216.296 282.695 216.263 282.942 216.179 283.174C216.095 283.405 215.963 283.616 215.79 283.792C215.618 283.968 215.41 284.105 215.18 284.193C214.95 284.282 214.704 284.32 214.458 284.305H195.88V290.469H214.77C215.855 290.482 216.934 290.303 217.957 289.94C218.883 289.604 219.732 289.083 220.451 288.409C221.155 287.738 221.713 286.928 222.089 286.03C222.491 285.054 222.69 284.006 222.674 282.951C222.687 281.915 222.488 280.887 222.089 279.931Z" fill="#FFCE00"/>
<path d="M232.737 284.279V271.813H250.057V265.702H226.311V290.472H250.099V284.279H232.737ZM235.293 275.486V280.53H249.787V275.497L235.293 275.486Z" fill="#FFCE00"/>
<path d="M275.995 283.193L276.181 283.1C277.688 282.399 278.964 281.282 279.857 279.88C280.786 278.393 281.26 276.667 281.222 274.915C281.237 273.626 280.992 272.348 280.502 271.157C280.044 270.052 279.354 269.058 278.478 268.243C277.58 267.419 276.527 266.78 275.382 266.363C274.125 265.91 272.797 265.685 271.461 265.699H254.347V290.469H260.742V271.838H271.466C271.916 271.825 272.363 271.902 272.782 272.065C273.201 272.228 273.583 272.474 273.905 272.787C274.228 273.1 274.484 273.475 274.659 273.889C274.834 274.303 274.925 274.748 274.925 275.197C274.925 275.647 274.834 276.092 274.659 276.506C274.484 276.92 274.228 277.295 273.905 277.608C273.583 277.921 273.201 278.167 272.782 278.33C272.363 278.493 271.916 278.57 271.466 278.557H262.985V284.102H268.843L273.862 290.469H282.233L275.995 283.193Z" fill="#FFCE00"/>
<path d="M306.471 265.702L297.388 282.852L288.307 265.702H281.071L293.737 288.687C294.356 289.881 295.294 290.458 296.605 290.458H298.151C299.409 290.458 300.335 289.878 300.966 288.69L313.683 265.702H306.471Z" fill="#FFCE00"/>
<path d="M316.641 265.702V290.472H323.076V265.702H316.641Z" fill="#FFCE00"/>
<path d="M335 273.566C335.563 273.008 336.233 272.569 336.97 272.277C337.763 271.971 338.608 271.817 339.458 271.824H352.026V265.702H339.923C338.127 265.683 336.342 265.987 334.653 266.6C333.121 267.158 331.716 268.02 330.524 269.133C329.364 270.237 328.438 271.564 327.802 273.034C326.485 276.278 326.485 279.907 327.802 283.151C328.43 284.625 329.357 285.954 330.524 287.052C331.72 288.156 333.124 289.01 334.653 289.566C336.342 290.178 338.127 290.482 339.923 290.464H352.026V284.279H339.467C338.616 284.286 337.772 284.131 336.978 283.823C336.245 283.534 335.576 283.104 335.008 282.557C334.444 281.995 334 281.325 333.702 280.586C333.065 278.957 333.065 277.149 333.702 275.52C334.004 274.791 334.445 274.128 335 273.566Z" fill="#FFCE00"/>
<path d="M362.573 284.279V271.813H379.893V265.702H356.139V290.472H379.93V284.279H362.573ZM365.127 275.486V280.53H379.62V275.497L365.127 275.486Z" fill="#FFCE00"/>
<path d="M255.428 94.5159H255.563C255.563 61.166 230.401 33.5836 198.062 29.7554V43.7535C222.722 47.4831 241.691 68.8279 241.691 94.5159H241.559C241.559 120.204 222.596 141.546 197.929 145.275V159.273C230.266 155.445 255.428 127.863 255.428 94.5159Z" fill="#FFCE00"/>
<path d="M265.268 53.8193C264.891 54.3569 264.655 54.9807 264.582 55.6334C264.508 56.286 264.6 56.9466 264.849 57.5545L272.418 76.38C272.694 77.0908 273.162 77.7106 273.771 78.17C274.379 78.6294 275.104 78.9102 275.863 78.9809C276.518 79.0318 277.175 78.9172 277.774 78.6477C278.373 78.3782 278.895 77.9623 279.292 77.4383L291.426 61.6191C291.861 61.0676 292.146 60.4135 292.254 59.7197C292.362 59.026 292.289 58.3161 292.043 57.6586C291.79 57.0111 291.37 56.4419 290.827 56.0089C290.283 55.5758 289.634 55.2942 288.946 55.1929L269.243 52.1782C268.493 52.0561 267.724 52.1449 267.023 52.4347C266.321 52.7246 265.713 53.2039 265.268 53.8193Z" fill="#FFCE00"/>
<path d="M247.45 23.9344L247 4.00268C246.993 3.30077 246.806 2.61241 246.456 2.00399C246.106 1.39557 245.605 0.887606 245.001 0.52917C244.401 0.180679 243.719 -0.00286865 243.024 -0.00286865C242.33 -0.00286865 241.647 0.180679 241.047 0.52917L223.809 10.5161C223.143 10.8895 222.596 11.4412 222.227 12.1091C221.859 12.7771 221.684 13.5346 221.723 14.2965C221.766 14.9519 221.973 15.5861 222.325 16.1405C222.677 16.6949 223.163 17.1517 223.738 17.4688L241.429 27.4022C242.087 27.7844 242.838 27.9761 243.598 27.9557C244.358 27.9353 245.097 27.7037 245.733 27.2868C246.278 26.9172 246.721 26.4164 247.021 25.8305C247.321 25.2445 247.469 24.5924 247.45 23.9344Z" fill="#FFCE00"/>
<path d="M272.285 112.5L264.716 131.322C264.468 131.93 264.375 132.591 264.448 133.243C264.521 133.896 264.756 134.52 265.133 135.058C265.58 135.676 266.191 136.157 266.896 136.448C267.602 136.738 268.375 136.826 269.127 136.701L288.831 133.684C289.519 133.583 290.167 133.301 290.711 132.868C291.255 132.435 291.675 131.866 291.927 131.218C292.173 130.561 292.245 129.851 292.137 129.157C292.028 128.463 291.743 127.809 291.308 127.258L279.176 111.439C278.78 110.915 278.258 110.499 277.659 110.23C277.06 109.961 276.403 109.847 275.748 109.899C274.985 109.965 274.256 110.244 273.644 110.704C273.032 111.164 272.562 111.786 272.285 112.5Z" fill="#FFCE00"/>
<path d="M244.866 188.348C245.47 187.989 245.971 187.481 246.322 186.873C246.672 186.265 246.86 185.576 246.868 184.874L247.318 164.943C247.338 164.286 247.191 163.635 246.893 163.05C246.594 162.465 246.153 161.965 245.61 161.596C244.974 161.173 244.233 160.937 243.471 160.914C242.708 160.89 241.954 161.081 241.294 161.463L223.603 171.405C223.029 171.723 222.543 172.18 222.192 172.734C221.84 173.289 221.633 173.923 221.591 174.578C221.552 175.339 221.726 176.097 222.094 176.764C222.462 177.432 223.009 177.984 223.674 178.358L240.914 188.345C241.514 188.695 242.196 188.88 242.89 188.881C243.584 188.881 244.266 188.697 244.866 188.348Z" fill="#FFCE00"/>
<path d="M182.513 43.7535V29.7554C175.58 30.5757 168.825 32.5119 162.511 35.4891L158.412 28.6069C158.527 28.3329 158.621 28.0506 158.694 27.7625L162.671 12.0361C162.87 11.2469 162.912 10.4262 162.795 9.62072C162.677 8.81529 162.402 8.04093 161.985 7.34187C161.568 6.64281 161.017 6.03271 160.364 5.54646C159.711 5.0602 158.969 4.7073 158.18 4.50788C157.391 4.30845 156.57 4.26641 155.765 4.38418C154.959 4.50195 154.185 4.77723 153.486 5.19426C152.787 5.61129 152.177 6.1619 151.69 6.81471C151.204 7.46751 150.851 8.20974 150.652 8.99894L149.486 13.6011L143.342 3.2764C142.925 2.57684 142.375 1.96616 141.723 1.47913C141.071 0.992109 140.329 0.638288 139.54 0.43794C138.751 0.237593 137.931 0.194594 137.125 0.311425C136.319 0.428255 135.545 0.702606 134.845 1.11883C134.146 1.53505 133.535 2.08503 133.048 2.73728C132.561 3.38953 132.207 4.1313 132.007 4.92027C131.806 5.70925 131.763 6.52996 131.88 7.33554C131.997 8.14113 132.271 8.91581 132.688 9.61536L138.88 20.0302L133.813 19.1013C133.013 18.9551 132.191 18.9681 131.395 19.1395C130.599 19.3109 129.845 19.6374 129.175 20.1003C128.506 20.5632 127.934 21.1534 127.492 21.8373C127.051 22.5213 126.748 23.2855 126.602 24.0863C126.456 24.8871 126.469 25.709 126.64 26.5048C126.812 27.3006 127.138 28.0549 127.601 28.7246C128.064 29.3942 128.654 29.9661 129.338 30.4077C130.022 30.8492 130.786 31.1517 131.587 31.2979L146.824 34.0817C146.978 34.1127 147.133 34.1296 147.288 34.1465L151.851 41.8141C143.333 48.0335 136.438 56.2133 131.75 65.6612L123.669 62.6465C123.589 62.3577 123.487 62.0754 123.365 61.8021L116.609 47.0524C116.272 46.3112 115.791 45.6438 115.196 45.0885C114.6 44.5332 113.9 44.1009 113.137 43.8163C112.374 43.5318 111.562 43.4006 110.748 43.4302C109.934 43.4598 109.134 43.6498 108.394 43.9891C107.653 44.3284 106.987 44.8104 106.433 45.4076C105.879 46.0047 105.449 46.7052 105.166 47.4691C104.883 48.2329 104.754 49.045 104.786 49.8588C104.817 50.6727 105.009 51.4724 105.35 52.212L107.32 56.5299L96.0612 52.3302C95.2986 52.0456 94.4874 51.9139 93.674 51.9428C92.8605 51.9717 92.0607 52.1604 91.3202 52.4984C90.5797 52.8364 89.9131 53.3169 89.3583 53.9125C88.8035 54.5081 88.3715 55.2071 88.0868 55.9697C87.8022 56.7323 87.6706 57.5435 87.6994 58.357C87.7283 59.1704 87.9171 59.9702 88.2551 60.7107C88.593 61.4512 89.0735 62.1178 89.6691 62.6726C90.2647 63.2274 90.9638 63.6595 91.7264 63.9441L103.087 68.1832L98.5495 70.6377C97.8335 71.0259 97.2009 71.5512 96.688 72.1838C96.175 72.8164 95.7916 73.5438 95.5598 74.3246C95.3279 75.1053 95.2522 75.9241 95.3367 76.7341C95.4213 77.5442 95.6646 78.3296 96.0527 79.0456C96.4409 79.7616 96.9662 80.3942 97.5988 80.9072C98.2314 81.4201 98.9588 81.8034 99.7396 82.0353C100.52 82.2671 101.339 82.3429 102.149 82.2583C102.959 82.1738 103.745 81.9305 104.461 81.5423L118.081 74.1675C118.222 74.0944 118.363 74.0099 118.481 73.9254L127.345 77.2328C124.259 88.4943 124.249 100.377 127.314 111.644L118.481 114.943C118.352 114.858 118.222 114.774 118.081 114.698L104.461 107.326C103.745 106.938 102.96 106.695 102.15 106.61C101.34 106.525 100.521 106.601 99.7406 106.833C98.96 107.064 98.2326 107.448 97.6001 107.96C96.9676 108.473 96.4423 109.106 96.0542 109.821C95.666 110.537 95.4227 111.322 95.338 112.132C95.2534 112.942 95.3291 113.761 95.5608 114.541C95.7925 115.322 96.1757 116.049 96.6885 116.682C97.2013 117.314 97.8337 117.84 98.5495 118.228L103.087 120.685L91.7264 124.961C90.9638 125.245 90.2647 125.678 89.6691 126.232C89.0735 126.787 88.593 127.454 88.2551 128.194C87.9171 128.935 87.7283 129.735 87.6994 130.548C87.6706 131.361 87.8022 132.173 88.0868 132.935C88.3715 133.698 88.8035 134.397 89.3583 134.992C89.9131 135.588 90.5797 136.069 91.3202 136.407C92.0607 136.745 92.8605 136.933 93.674 136.962C94.4874 136.991 95.2986 136.859 96.0612 136.575L107.32 132.375L105.35 136.69C105.009 137.43 104.817 138.229 104.786 139.043C104.754 139.857 104.883 140.669 105.166 141.433C105.449 142.197 105.879 142.897 106.433 143.495C106.987 144.092 107.653 144.574 108.394 144.913C109.134 145.252 109.934 145.442 110.748 145.472C111.562 145.502 112.374 145.37 113.137 145.086C113.9 144.801 114.6 144.369 115.196 143.814C115.791 143.258 116.272 142.591 116.609 141.85L123.365 127.103C123.487 126.834 123.588 126.557 123.669 126.273L131.7 123.272C136.38 132.743 143.276 140.944 151.803 147.181L147.299 154.767C147.144 154.784 146.99 154.804 146.832 154.832L131.595 157.618C130.058 157.878 128.676 158.709 127.724 159.943C126.773 161.178 126.321 162.726 126.461 164.279C126.601 165.832 127.321 167.274 128.478 168.319C129.634 169.364 131.143 169.935 132.702 169.916C133.079 169.917 133.456 169.882 133.828 169.812L138.894 168.886L132.702 179.301C132.285 180 132.011 180.775 131.894 181.581C131.777 182.386 131.82 183.207 132.021 183.996C132.221 184.785 132.575 185.527 133.062 186.179C133.549 186.831 134.16 187.381 134.859 187.797C135.559 188.214 136.333 188.488 137.139 188.605C137.945 188.722 138.765 188.679 139.554 188.478C140.343 188.278 141.085 187.924 141.737 187.437C142.39 186.95 142.939 186.339 143.356 185.64L149.5 175.315L150.666 179.917C151.069 181.511 152.089 182.88 153.501 183.722C154.913 184.564 156.602 184.81 158.195 184.407C159.789 184.004 161.158 182.984 162 181.572C162.842 180.16 163.088 178.471 162.685 176.877L158.708 161.151C158.634 160.863 158.54 160.581 158.426 160.307L162.465 153.52C168.796 156.512 175.57 158.457 182.524 159.279V145.281C157.863 141.551 138.894 120.209 138.894 94.5215C138.894 68.8335 157.852 47.4831 182.513 43.7535Z" fill="white"/>
<path d="M191.053 91.1831C190.399 91.1831 189.759 91.377 189.216 91.7403C188.672 92.1036 188.248 92.62 187.997 93.2242C187.747 93.8284 187.681 94.4932 187.809 95.1347C187.936 95.7762 188.251 96.3655 188.713 96.8282C189.175 97.2909 189.764 97.6061 190.406 97.734C191.047 97.8619 191.712 97.7968 192.316 97.547C192.921 97.2971 193.438 96.8736 193.801 96.33C194.165 95.7865 194.36 95.1474 194.36 94.4933C194.361 94.0588 194.275 93.6284 194.109 93.2268C193.943 92.8252 193.7 92.4602 193.392 92.1528C193.085 91.8454 192.721 91.6015 192.319 91.4351C191.918 91.2687 191.487 91.1831 191.053 91.1831Z" fill="white"/>
<path d="M225.644 90.3387C224.422 85.0834 220.453 72.0199 211.615 74.9726C206.241 76.7628 202.199 80.0027 199.48 82.8541C198.229 84.1539 197.086 85.5538 196.063 87.0397C195.026 86.3416 193.854 85.8671 192.623 85.6464C193.676 82.9345 195.036 80.3523 196.677 77.9507C197.628 76.563 198.582 75.3808 199.469 74.3196C202.135 71.136 204.223 69.084 203.95 66.0468C203.825 64.622 203.231 63.2788 202.261 62.2271C201.488 61.4465 200.514 60.8943 199.447 60.6311C198.787 60.4655 198.115 60.3563 197.437 60.3046C193.699 59.9584 185.955 59.6741 181.592 62.6662C179.681 63.9751 178.42 65.9174 178.42 68.7491C178.42 73.9818 179.943 78.5165 181.623 81.9196C182.619 83.9544 183.822 85.8806 185.215 87.6674C184.484 88.2935 183.859 89.0329 183.363 89.8574C182.743 89.3817 182.166 88.906 181.632 88.45C179.963 87.0048 178.427 85.4127 177.043 83.6929C172.821 78.4517 171.715 74.1225 167.735 73.3034C166.335 73.0122 164.879 73.1913 163.591 73.8129C161.621 74.8319 160.813 76.7854 160.36 77.8916C158.331 82.8851 154.058 95.8529 162.978 98.5326C170.775 100.877 178.017 99.1913 181.648 97.9697C182.023 97.843 182.358 97.7248 182.648 97.6178C183.086 98.793 183.77 99.8618 184.652 100.754C183.61 101.438 182.608 102.034 181.668 102.541C180.136 103.371 178.547 104.093 176.914 104.7C170.606 107.045 166.142 106.724 164.112 110.242C163.394 111.478 163.103 112.917 163.285 114.335C163.622 116.528 165.224 117.913 166.13 118.687C169.227 121.324 176.157 126.585 181.699 125.8C183.526 125.544 185.204 124.626 186.538 122.734C191.911 115.115 192.044 106.504 191.886 103.416C192.907 103.329 193.904 103.06 194.83 102.623C195.748 105.437 196.332 108.35 196.57 111.301C197.093 118.014 195.562 122.211 198.397 125.133C198.746 125.487 199.133 125.802 199.551 126.073C200.316 126.588 201.189 126.921 202.104 127.044C204.305 127.311 206.073 126.157 207.069 125.496C211.573 122.515 222.404 114.217 216.549 106.974C210.9 99.9879 203.038 97.4208 199.781 96.6186C199.958 95.9182 200.046 95.1986 200.043 94.4765C200.045 94.2481 200.036 94.0199 200.015 93.7925C202.946 93.9239 205.852 94.3962 208.673 95.1999C215.148 97.0548 218.542 99.9597 222.269 98.3356C223.585 97.767 224.674 96.7767 225.365 95.5207C226.376 93.5644 225.911 91.5068 225.644 90.3387ZM191.053 101.316C189.703 101.316 188.384 100.915 187.262 100.165C186.141 99.4148 185.267 98.3489 184.751 97.1019C184.235 95.8549 184.1 94.4829 184.364 93.1595C184.628 91.836 185.278 90.6205 186.233 89.6667C187.188 88.7128 188.404 88.0635 189.727 87.8008C191.051 87.5381 192.423 87.6737 193.669 88.1907C194.916 88.7076 195.981 89.5826 196.73 90.705C197.48 91.8273 197.879 93.1467 197.879 94.4962C197.876 96.3053 197.156 98.0396 195.877 99.3183C194.597 100.597 192.862 101.316 191.053 101.316Z" fill="white"/>
</g>
<defs>
<clipPath id="clip0_162_894">
<rect width="380" height="290.452" fill="white"/>
</clipPath>
</defs>
</svg>
