<svg width="30" height="30" viewBox="0 0 30 30" fill="none" xmlns="http://www.w3.org/2000/svg">
<path d="M25.605 4.39179C19.7463 -1.46517 10.2488 -1.46376 4.39179 4.39502C-1.46517 10.2538 -1.46376 19.7512 4.39502 25.6082C10.2538 31.4652 19.7512 31.4638 25.6082 25.605C27.0009 24.2119 28.1055 22.5581 28.8591 20.7381C29.6126 18.9181 30.0003 16.9676 30 14.9977C29.9997 13.0279 29.6114 11.0774 28.8573 9.25765C28.1032 7.43788 26.9981 5.78446 25.605 4.39179ZM22.717 20.8948L22.715 20.8968V20.8918L21.955 21.6468C21.4717 22.1362 20.8703 22.4927 20.2091 22.6819C19.5478 22.8711 18.8489 22.8865 18.1799 22.7268C16.8092 22.3599 15.506 21.7758 14.32 20.9968C13.218 20.2926 12.1969 19.4693 11.275 18.5418C10.4267 17.6998 9.66462 16.7752 8.99995 15.7818C8.27293 14.713 7.69746 13.5486 7.28995 12.3218C7.0609 11.6152 7.03313 10.8588 7.20976 10.1373C7.38638 9.41578 7.76042 8.75772 8.28997 8.23683L9.17995 7.34685C9.42739 7.09829 9.82946 7.09741 10.078 7.34486L10.0799 7.34685L12.8899 10.1568C13.1385 10.4043 13.1394 10.8063 12.8919 11.0548L12.8899 11.0568L11.2399 12.7068C10.7665 13.1751 10.707 13.9192 11.0999 14.4568C11.6967 15.2758 12.3571 16.0466 13.075 16.7619C13.8753 17.5656 14.7454 18.2969 15.6749 18.9469C16.2121 19.3215 16.9403 19.2584 17.4049 18.7969L18.9999 17.1769C19.2473 16.9283 19.6494 16.9274 19.8979 17.1749L19.8999 17.1769L22.7149 19.9969C22.9635 20.2443 22.9644 20.6463 22.717 20.8948Z" fill="white"/>
</svg>
