<svg width="80" height="80" viewBox="0 0 80 80" fill="none" xmlns="http://www.w3.org/2000/svg">
<path fill-rule="evenodd" clip-rule="evenodd" d="M39.9479 80C17.8559 79.9712 -0.0294611 62.0399 9.76207e-05 39.9487C0.0288785 17.8566 17.9609 -0.0287462 40.0514 3.46866e-05C62.1427 0.0288156 80.0288 17.9616 80 40.0529C79.9712 62.1442 62.0392 80.0295 39.9479 80ZM68.3928 63.402C69.5409 63.4035 70.5366 62.5323 70.5389 61.2162C70.5405 59.9 69.5463 59.0265 68.3982 59.0257C67.2423 59.0242 66.2443 59.8946 66.2428 61.2107C66.2404 62.4569 67.1358 63.3996 68.3928 63.402ZM28.2015 29.0228C27.8226 19.3299 21.1354 14.9762 12.7508 14.9039C11.8104 14.8961 10.5533 14.9295 9.61446 15.0548L9.54912 64.932L13.566 64.9367L13.594 43.9873L34.2742 67.6608L38.4809 67.6662L19.6411 44.9713C26.0056 41.7689 28.4799 36.1418 28.2015 29.0228ZM35.2738 31.7881C34.3606 31.9102 33.5337 32.4213 32.9254 33.1502L32.969 1.30684C31.8481 1.50831 30.7466 1.76033 29.6615 2.05748L29.5899 56.3857L32.8966 56.3903L32.9223 37.0262C32.9223 37.0262 32.9239 35.5086 34.1101 35.511C35.3376 35.5133 35.336 37.0301 35.336 37.0301L35.3127 56.3934L38.6162 56.3973L38.6442 35.0614C38.6474 33.0062 37.1391 31.5415 35.2738 31.7881ZM44.5459 31.7842C41.9572 31.7819 39.8562 35.143 39.8437 44.2176C39.8328 53.2929 41.9253 56.6579 44.514 56.6618C46.6904 56.6649 48.5231 54.2862 49.0575 48.1232L45.8861 47.7063C45.7648 51.461 45.3914 52.9319 44.5187 52.9304C43.4771 52.9296 43.1776 50.8558 43.1512 45.3501L49.2123 45.3587L49.2131 44.23C49.2255 35.1555 47.133 31.7881 44.5459 31.7842ZM55.1699 31.799C52.5843 31.7951 50.4817 35.1578 50.4693 44.2323C50.4584 53.3069 52.5524 56.6727 55.1388 56.6758C57.316 56.6781 59.1494 54.3002 59.6838 48.138L56.5125 47.7211C56.3919 51.475 56.0186 52.9459 55.1427 52.9452C54.1035 52.9436 53.8032 50.8691 53.7768 45.3641L59.8371 45.3719L59.8379 44.2448C59.8503 35.1703 57.7579 31.8021 55.1699 31.799ZM72.7589 31.8231C71.5602 31.8216 70.5148 32.3995 69.9843 33.2497C69.4538 32.398 68.4153 31.8169 67.2174 31.8161C66.0289 31.8146 64.9951 32.2634 64.4607 33.1043L64.4537 33.0809C64.1861 31.7749 62.926 31.7197 61.406 31.9577C61.3197 31.9709 61.2326 31.988 61.1493 32.0059L61.1159 56.4269L64.4226 56.4315L64.4482 37.0675C64.4482 37.0675 64.4498 35.5506 65.636 35.553C66.8651 35.5537 66.8635 37.0714 66.8635 37.0714L66.8402 56.4354L70.1437 56.4393L70.1702 37.0752C70.1702 37.0752 70.171 35.5584 71.3564 35.56C72.5854 35.5615 72.5839 37.0791 72.5839 37.0791L72.5606 56.4417L75.8657 56.4471L75.8945 35.1104L75.9038 34.5441C75.8968 33.0708 74.4974 31.8255 72.7589 31.8231ZM55.166 35.5312C56.1632 35.532 56.5008 37.4595 56.5514 42.4946L53.7869 42.4915C53.8468 37.4556 54.1665 35.5296 55.166 35.5312ZM44.5412 35.5164C45.5369 35.518 45.8752 37.4447 45.9274 42.4814L43.1613 42.4767C43.2212 37.4416 43.5424 35.5149 44.5412 35.5164ZM14.4777 42.3211C14.2241 42.3421 13.8048 42.3064 13.5956 42.2916L13.6267 19.0716C14.0179 19.0732 14.4115 19.0156 14.8012 19.0195C21.1992 19.0818 24.5844 23.9278 24.5774 29.9967C24.5688 36.2118 20.9946 41.7969 14.4777 42.3211ZM68.3974 59.4069C69.3332 59.4084 70.0714 60.1513 70.0698 61.2162C70.0691 62.2857 69.3293 63.0224 68.3928 63.0208C67.3528 63.0192 66.7103 62.2056 66.7118 61.2115C66.7134 60.1458 67.4516 59.4053 68.3974 59.4069ZM67.9611 62.4639L67.9626 61.4285L68.3368 61.4293L68.9614 62.4646L69.4126 62.4654L68.735 61.4013C69.0999 61.3616 69.3674 61.1796 69.3674 60.7409C69.369 60.2493 69.0711 60.0447 68.4861 60.0439L67.5675 60.0424L67.5636 62.4631L67.9611 62.4639ZM68.97 60.7106C68.97 61.0621 68.7063 61.0909 68.4083 61.0902L67.9642 61.0894V60.3823H68.4433C68.6845 60.3831 68.97 60.4189 68.97 60.7106Z" fill="#E4002B"/>
</svg>
