<svg width="120" height="73" viewBox="0 0 120 73" fill="none" xmlns="http://www.w3.org/2000/svg">
<g clip-path="url(#clip0_709_3057)">
<path d="M26.8478 23.7768V37.9092C26.8478 41.8683 27.9555 44.931 30.1427 46.9742C32.3299 49.0173 35.5947 50.053 39.9551 50.053C44.3154 50.053 47.8255 49.0314 50.0067 46.9742C52.218 44.931 53.2875 41.8683 53.2875 37.9092V23.7768H44.6512V37.6669C44.6512 39.484 44.221 40.8225 43.445 41.7512C42.7977 42.5406 41.5955 42.9888 40.0717 42.9888C38.5478 42.9888 37.221 42.5406 36.5757 41.626C35.9123 40.8185 35.4821 39.4779 35.4821 37.6669V23.7768H26.8478Z" fill="#141414"/>
<path d="M112.268 7.79908C103.624 11.851 96.6039 13.5368 87.0388 13.5368C73.9315 13.5368 62.1792 9.26885 49.8479 5.5702C41.7926 3.1475 33.5221 -0.104979 25.0044 0.00202396C19.1523 0.0787428 12.1122 2.5075 7.84631 6.56149C4.41469 9.82608 1.44947 15.5477 0.0161133 20.1266H112.268V7.79908Z" fill="#F3002E"/>
<path d="M55.7562 23.7768V37.9092C55.7562 41.8683 56.8498 44.931 59.0371 46.9742C61.2243 49.0173 64.489 50.053 68.8494 50.053C73.2098 50.053 76.7198 49.0314 78.901 46.9742C81.0822 44.9169 82.1658 41.8683 82.1658 37.9092V23.7768H73.5476V37.6669C73.5476 39.484 73.1153 40.8225 72.3414 41.7512C71.694 42.5406 70.4919 42.9888 68.952 42.9888C67.4121 42.9888 66.1194 42.5406 65.4701 41.626C64.8107 40.8185 64.3785 39.4779 64.3785 37.6669V23.7768H55.7562Z" fill="#141414"/>
<path d="M119.721 9.88664C119.581 9.46643 119.337 9.0886 119.013 8.78835C118.713 8.4928 118.364 8.25227 117.982 8.07769C117.641 7.92675 117.276 7.83722 116.904 7.81322H116.673C116.244 7.82082 115.82 7.90987 115.425 8.07568C115.043 8.22713 114.704 8.4713 114.439 8.78633C114.099 9.08203 113.839 9.46001 113.684 9.88462C113.56 10.2774 113.488 10.6846 113.469 11.096C113.484 11.5216 113.557 11.9433 113.684 12.3497C113.827 12.7687 114.071 13.1458 114.393 13.448C114.722 13.7357 115.091 13.975 115.487 14.1587C115.869 14.2918 116.269 14.3647 116.673 14.3747H116.904C117.26 14.337 117.608 14.243 117.935 14.0961C118.335 13.9555 118.702 13.7342 119.013 13.446C119.339 13.1338 119.601 12.7607 119.785 12.3477C119.917 11.9433 119.99 11.5215 120 11.096C119.989 10.678 119.894 10.2666 119.721 9.88664ZM119.351 12.2367C119.215 12.5862 118.986 12.8914 118.689 13.1189C118.44 13.41 118.122 13.6335 117.765 13.769C117.486 13.8604 117.197 13.9127 116.904 13.9245C116.828 13.9378 116.75 13.9432 116.673 13.9406C116.305 13.9205 115.941 13.8471 115.593 13.7226C115.26 13.5893 114.96 13.3823 114.717 13.1169C114.435 12.8592 114.214 12.542 114.07 12.1882C113.96 11.8483 113.903 11.4936 113.901 11.1364C113.915 10.7462 113.988 10.3603 114.116 9.99163C114.266 9.65226 114.47 9.33938 114.719 9.06495C114.982 8.80165 115.296 8.59549 115.642 8.45927C115.993 8.32966 116.362 8.25674 116.735 8.24324H116.906C117.22 8.28383 117.529 8.35621 117.829 8.45927C118.182 8.61095 118.497 8.83835 118.754 9.12551C119.019 9.38723 119.224 9.70332 119.357 10.0522C119.486 10.3989 119.56 10.7643 119.574 11.1343C119.555 11.511 119.48 11.8826 119.351 12.2367Z" fill="#141414"/>
<path d="M111.45 31.5254C110.676 29.9319 109.604 28.5023 108.294 27.3139C106.891 26.1197 105.283 25.192 103.55 24.5763C101.987 24.1359 100.38 23.8765 98.759 23.803C98.4052 23.7869 98.0353 23.7707 97.6815 23.7707H85.0285V49.5927H97.6734C98.0272 49.5927 98.3971 49.5785 98.7509 49.5624C100.407 49.482 102.049 49.2227 103.65 48.7891C105.236 48.3409 106.931 47.3194 108.286 46.1746C109.641 44.9229 110.873 43.4531 111.551 41.9672C112.228 40.4813 112.556 38.6744 112.556 36.7564C112.557 34.9541 112.18 33.1719 111.45 31.5254ZM101.64 41.2868C100.851 42.0799 99.8505 42.6262 98.759 42.8596C98.2924 42.9535 97.8176 43.0001 97.3417 42.9989H94.0609V30.3827H97.3417C97.8184 30.3792 98.294 30.4307 98.759 30.5361C99.8897 30.8063 100.924 31.3848 101.748 32.2078C102.858 33.3525 103.443 34.9454 103.443 36.7564C103.458 38.4459 102.811 40.0735 101.64 41.2868Z" fill="#141414"/>
<path d="M115.425 9.17598V12.9049H116.132V11.312H116.78L116.904 11.5422L117.549 12.9029H118.305L117.489 11.201C117.739 11.1702 117.972 11.0565 118.151 10.8779C118.277 10.6777 118.352 10.4486 118.368 10.2117C118.368 10.0584 118.329 9.90773 118.253 9.77478C118.177 9.64184 118.067 9.53139 117.935 9.45459C117.622 9.27249 117.266 9.17641 116.904 9.17598H115.425ZM117.658 10.2743C117.656 10.3669 117.637 10.4583 117.6 10.5432C117.563 10.628 117.509 10.7048 117.443 10.7689C117.267 10.82 117.087 10.8512 116.904 10.8618C116.828 10.875 116.75 10.8805 116.673 10.8779H116.132V9.60803H116.673C116.749 9.60803 116.826 9.62418 116.904 9.62418C117.093 9.63403 117.277 9.68721 117.443 9.77963C117.51 9.84356 117.563 9.92024 117.6 10.0052C117.637 10.0901 117.657 10.1816 117.658 10.2743Z" fill="#141414"/>
<path d="M22.4573 41.0547C21.9949 40.1583 21.5486 39.2377 21.0862 38.6724C20.6239 38.1071 20.071 37.5418 19.3935 37.3257C20.6035 36.8133 21.6594 35.9928 22.4573 34.9454C23.1436 33.9401 23.4993 32.7441 23.4745 31.5254C23.4745 28.9008 22.4573 26.8556 20.5314 25.6019C18.7462 24.4895 15.7428 23.8091 11.9674 23.7849H-0.00805664V49.5927H8.964V38.7814H10.2124C10.8295 38.7804 11.4356 38.9456 11.9674 39.2599C12.2008 39.4065 12.4092 39.5899 12.5846 39.8029C13.1535 40.3723 14.0622 41.8582 14.9708 43.9014L17.4656 49.5927H26.311L22.4573 41.0547ZM13.9556 33.6755C13.3503 34.0355 12.6693 34.2478 11.9674 34.2953C11.533 34.3464 11.0961 34.372 10.6587 34.3721H8.964V28.3234H10.7733C11.1695 28.3293 11.565 28.3604 11.9574 28.4163C12.6652 28.5143 13.3454 28.7575 13.9556 29.131C14.617 29.5933 14.9708 30.3827 14.9708 31.4043C14.9708 32.4258 14.617 33.2273 13.9556 33.6755Z" fill="#141414"/>
<path d="M0.0161133 65.2009C8.67255 61.1328 15.6805 59.447 25.2456 59.447C38.3529 59.447 50.1052 63.7332 62.4365 67.4298C70.4919 69.8525 78.7784 73.0828 87.2821 72.998C93.1341 72.9192 100.188 70.4905 104.438 66.4385C107.874 63.1739 110.831 57.4523 112.264 52.8734H0.0161133V65.2009Z" fill="#F3002E"/>
</g>
<defs>
<clipPath id="clip0_709_3057">
<rect width="120" height="73" fill="white"/>
</clipPath>
</defs>
</svg>
