<svg width="120" height="120" viewBox="0 0 120 120" fill="none" xmlns="http://www.w3.org/2000/svg">
<g clip-path="url(#clip0_705_2868)">
<path fill-rule="evenodd" clip-rule="evenodd" d="M16.7235 66.1383L16.8268 65.8283L40.0386 65.5195C40.2453 64.9007 40.348 64.2819 40.5547 63.6618L17.5496 63.3531L17.653 63.043L40.6586 62.7342C40.762 62.1154 40.762 61.4966 40.8647 60.8778L18.3751 60.5678L18.4785 60.259L40.8647 60.0523C40.8647 59.3301 40.7614 58.7113 40.7614 58.0925L19.2 57.7825L19.3033 57.4731L40.658 57.267C40.5547 56.5449 40.4513 55.926 40.2453 55.3072L20.1288 54.9978L20.2322 54.6878L40.0392 54.4811L39.4204 52.6247L20.851 52.418L20.9543 52.108L39.111 51.9019C36.0144 45.1964 29.2062 40.4507 21.2625 40.4507C11.8751 40.4507 3.93137 47.1562 2.17765 56.0281L30.2378 55.7187L29.9284 56.7503L2.07431 56.4409C1.97097 57.2664 1.86763 57.9879 1.76428 58.8134L29.4123 58.504L29.1029 59.5356L1.76428 59.2262V60.0517C1.76428 60.5671 1.76428 61.0826 1.86763 61.5993L28.5868 61.2893L28.2774 62.3215L1.86763 62.0115C1.97097 62.837 2.07431 63.5591 2.28038 64.384L27.7613 64.0752L27.4519 65.1061L2.38372 64.7974C2.5904 65.6229 2.79647 66.3438 3.10587 67.0666L26.8331 66.8611L26.5237 67.8921L3.31194 67.5833C3.62197 68.4075 4.03409 69.1297 4.44684 69.8525L26.0076 69.647L25.6982 70.678L4.75625 70.3673C5.27234 71.1928 5.78781 71.915 6.40663 72.6371L25.1827 72.4304L24.8727 73.4626L6.92272 73.2559C10.4302 77.0728 15.5886 79.548 21.2625 79.548C29.825 79.548 37.1499 74.0814 39.7285 66.4465L16.7235 66.1383ZM52.2113 52.108H64.9007L63.5597 56.5442H60.0516L57.2664 65.9316H52.0052L54.8932 56.5442H50.8697L52.2113 52.108ZM75.5251 65.9316H70.0585L68.202 60.6705H68.0987L66.5511 65.9316H61.4966L65.6235 52.1073H71.0901C77.3834 52.1073 76.6612 55.9248 76.3512 56.9564C75.7324 58.8128 74.8048 59.7416 72.8444 60.3611L75.5251 65.9316ZM69.0263 57.5758H69.7485C70.9861 57.5758 71.6049 57.6791 71.8116 56.7503C72.0183 55.9248 71.1928 55.8215 70.2652 55.8215H69.543L69.0263 57.5758Z" fill="#D35D35"/>
<path fill-rule="evenodd" clip-rule="evenodd" d="M78.0022 65.9316H72.6377L80.3747 52.1073H86.358L87.5957 65.9316H82.7479L82.6445 63.4558H79.1365L78.0022 65.9316ZM82.4379 56.5442H82.2312L80.4781 60.2584H82.5412L82.4379 56.5442Z" fill="#D35D35"/>
<path fill-rule="evenodd" clip-rule="evenodd" d="M98.8408 52.1079H103.999L99.873 65.9316H94.9206L93.3723 59.7416H93.2702L91.6192 65.9316H86.4614L90.6916 52.1079H95.6428L97.1904 58.0913H97.2938L98.8408 52.1079ZM105.134 52.1079H115.038L113.902 55.9254H109.156L108.744 57.2664H113.387L112.252 60.7738H107.61L107.196 62.2181H112.149L111.014 65.9316H101.007L105.134 52.1079ZM116.172 53.7589H115.862V52.4173H115.45V52.1079H116.481V52.4173H116.172V53.7589ZM118.236 53.7589H117.926V52.4173L117.617 53.7589H117.307L116.998 52.4173V53.7589H116.688V52.1079H117.204L117.514 53.4489L117.822 52.1079H118.236V53.7589Z" fill="#D35D35"/>
</g>
<defs>
<clipPath id="clip0_705_2868">
<rect width="120" height="120" fill="white"/>
</clipPath>
</defs>
</svg>
