<svg width="42" height="42" viewBox="0 0 42 42" fill="none" xmlns="http://www.w3.org/2000/svg">
<rect x="0.166992" y="0.166992" width="41.6667" height="41.6667" rx="20.8333" fill="white"/>
<path d="M29.2575 12.7321C27.1995 10.6813 24.4556 9.54199 21.5593 9.54199C15.5379 9.54199 10.6599 14.4031 10.6599 20.4035C10.6599 22.3024 11.1934 24.2013 12.1081 25.7963L10.5837 31.417L16.3764 29.8979C17.977 30.7334 19.73 31.1891 21.5593 31.1891C27.5806 31.1891 32.4587 26.328 32.4587 20.3276C32.3825 17.5173 31.3154 14.7829 29.2575 12.7321ZM26.8184 24.2772C26.5898 24.8849 25.5227 25.4925 24.9892 25.5685C24.5318 25.6444 23.9221 25.6444 23.3123 25.4925C22.9312 25.3406 22.3977 25.1887 21.7879 24.8849C19.044 23.7456 17.291 21.0112 17.1386 20.7833C16.9861 20.6314 15.9953 19.3402 15.9953 17.973C15.9953 16.6058 16.6812 15.9982 16.9099 15.6943C17.1386 15.3905 17.4434 15.3905 17.6721 15.3905C17.8245 15.3905 18.0532 15.3905 18.2056 15.3905C18.3581 15.3905 18.5867 15.3146 18.8154 15.8462C19.044 16.3779 19.5776 17.7451 19.6538 17.8211C19.73 17.973 19.73 18.1249 19.6538 18.2768C19.5776 18.4287 19.5014 18.5806 19.3489 18.7325C19.1965 18.8844 19.044 19.1123 18.9678 19.1883C18.8154 19.3402 18.6629 19.4921 18.8154 19.7199C18.9678 20.0238 19.5014 20.8593 20.3398 21.6188C21.4068 22.5303 22.2453 22.8341 22.5501 22.986C22.855 23.1379 23.0075 23.062 23.1599 22.91C23.3123 22.7581 23.8459 22.1505 23.9983 21.8467C24.1508 21.5429 24.3794 21.6188 24.6081 21.6948C24.8367 21.7707 26.2087 22.4543 26.4373 22.6062C26.7422 22.7581 26.8947 22.8341 26.9709 22.91C27.0471 23.1379 27.0471 23.6696 26.8184 24.2772Z" fill="#1D49E3"/>
</svg>
