<svg width="120" height="52" viewBox="0 0 120 52" fill="none" xmlns="http://www.w3.org/2000/svg">
<g clip-path="url(#clip0_709_2831)">
<path d="M31.0248 13.7182C31.0248 9.98598 31.9347 7.70756 36.7747 7.70756H44.8343C47.5684 7.70756 49.1413 8.3325 49.1413 10.4851V11.1925H58.3231C58.4228 2.69938 56.7112 -0.00868225 43.634 -0.00868225H34.7902C26.514 -0.00868225 21.5917 2.07444 21.5917 10.8409V19.5206C21.5917 28.3045 26.514 30.3702 34.7902 30.3702H43.634C46.1055 30.4137 48.5764 30.2541 51.0219 29.8928C50.9493 29.451 50.913 29.0039 50.9136 28.5562C50.8898 27.4946 51.1063 26.4415 51.5468 25.4757C51.9873 24.5099 52.6404 23.6565 53.4571 22.9795C54.8458 21.8715 56.5353 21.2077 58.3058 21.0743C58.3058 20.4754 58.3318 19.8418 58.3058 19.1734H49.1413V19.8852C49.1413 22.0551 47.5684 22.6583 44.8343 22.6583H36.7574C31.9174 22.6583 31.0074 20.3799 31.0074 16.652L31.0248 13.7182Z" fill="#1D5798"/>
<path d="M87.71 -0.00868225V11.0319H69.3464V-0.00868225H60.156V21.0135C62.0282 21.072 63.8281 21.7512 65.2734 22.9447C66.0507 23.6157 66.6697 24.4511 67.0856 25.3908C67.5014 26.3304 67.7038 27.3508 67.6782 28.3782C67.6787 29.0082 67.5971 29.6355 67.4356 30.2444L67.4052 30.3485H69.3421V19.3166H87.7056V30.3702H96.8918V-0.00868225H87.71Z" fill="#D8282F"/>
<path d="M59.4973 23.8908C62.7861 23.8908 64.827 25.6268 64.827 28.4086C64.827 30.1098 63.8607 31.6678 62.1102 32.7918L61.5555 33.1434L61.9888 33.6251L63.2541 34.9791L63.6874 35.4565L64.0774 34.9271L65.3773 33.1347L65.4033 33.1043H70.0353L69.94 33.2302L66.4735 37.8608L66.1962 38.2297L66.5126 38.5638L70.1783 42.4437L70.304 42.5739H65.1996L65.1736 42.5478L64.099 41.3283L63.7394 40.916L63.3277 41.2806C61.9808 42.4739 60.2236 43.0964 58.427 43.0165C55.3029 43.0165 51.9274 41.2806 51.9274 37.5266C51.953 36.5352 52.2567 35.571 52.8038 34.7444C53.351 33.9178 54.1194 33.2622 55.0212 32.8526L55.6495 32.5401L55.1946 32.0063C54.328 30.9691 53.7647 30.0274 53.7647 28.5345C53.7647 25.6528 55.9312 23.8648 59.48 23.8648M59.1853 30.8736L59.5493 30.6393C60.6022 29.9579 61.1352 29.2853 61.1352 28.6386C61.1352 27.7055 60.4463 27.085 59.428 27.085C59.2099 27.0698 58.9911 27.1004 58.7855 27.1747C58.5799 27.249 58.392 27.3654 58.2338 27.5165C58.0756 27.6676 57.9506 27.85 57.8667 28.0522C57.7829 28.2544 57.742 28.4718 57.7467 28.6907C57.7467 29.3981 58.349 30.0708 58.8733 30.5742L59.1853 30.8736ZM58.5614 39.4839C59.3941 39.4714 60.1954 39.1639 60.8232 38.6159L61.2912 38.2557L60.8882 37.8217L58.4964 35.2178L58.1844 34.8793L57.7987 35.1267C56.9971 35.6431 56.2172 36.2377 56.2172 37.3617C56.2172 38.7027 57.4088 39.5056 58.5614 39.5056M59.48 23.3397C55.6755 23.3397 53.2187 25.3881 53.2187 28.5475C53.2187 30.2053 53.8427 31.2642 54.7786 32.3665C53.7869 32.8231 52.9428 33.5491 52.3423 34.462C51.7418 35.3749 51.4089 36.4381 51.3815 37.531C51.3815 41.6798 55.0256 43.5677 58.4097 43.5677C60.3425 43.6404 62.2287 42.9625 63.6744 41.6755L64.749 42.895L64.9353 43.1077H71.5866L70.59 42.0531L66.9415 38.1819L70.408 33.547L71.1619 32.5488H65.1736L64.9873 32.8005L63.6874 34.5972L62.4178 33.2432C64.32 32.028 65.3903 30.2964 65.3903 28.3999C65.3903 25.323 63.0851 23.3353 59.5146 23.3353M59.2893 30.2053C58.8257 29.7713 58.3317 29.2071 58.3317 28.7167C58.3266 28.5693 58.3531 28.4226 58.4094 28.2863C58.4657 28.15 58.5504 28.0273 58.658 27.9266C58.7655 27.8259 58.8934 27.7494 59.0329 27.7023C59.1725 27.6551 59.3205 27.6385 59.467 27.6535C60.0303 27.6535 60.6282 27.9182 60.6282 28.6647C60.6282 28.9251 60.4419 29.4588 59.2893 30.2053ZM58.6004 38.9631C58.3774 38.9772 58.1539 38.947 57.9427 38.8743C57.7315 38.8015 57.5367 38.6876 57.3696 38.5392C57.2024 38.3908 57.0663 38.2107 56.9689 38.0094C56.8715 37.808 56.8148 37.5894 56.8021 37.366C56.8021 36.5718 57.2961 36.1292 58.1324 35.591L60.5286 38.195C59.9954 38.6685 59.3127 38.9389 58.6004 38.9588" fill="#D8282F"/>
<path d="M9.18177 39.3841V39.6792C9.18177 40.7685 9.18177 41.7493 8.21983 42.5088C7.25789 43.2682 6.11829 43.2379 4.90937 43.2379C2.07121 43.2379 0 43.1077 0 39.4665V36.88C0 33.586 1.85022 33.1043 4.90937 33.1043C7.77353 33.1043 9.10811 33.3864 9.16444 36.3766V36.7585H6.30028V36.3766C6.20496 35.4826 5.55066 35.4175 4.60172 35.4175C3.02015 35.4175 2.86849 35.8818 2.86849 37.3053V38.859C2.86849 40.3475 2.93782 40.9204 4.60172 40.9204C5.75865 40.9204 6.33494 40.8379 6.33494 39.6705V39.3754L9.18177 39.3841Z" fill="#1D5798"/>
<path d="M17.4146 39.6792C17.4146 42.5478 16.7907 43.2378 13.7575 43.2378C10.7244 43.2378 10.1134 42.4697 10.1134 39.6792C10.1134 36.8887 10.7114 36.1031 13.7575 36.1031C16.8037 36.1031 17.4146 36.7281 17.4146 39.6792ZM12.5053 39.6792C12.5053 41.1938 12.6439 41.4846 13.8052 41.4846C14.9664 41.4846 15.0314 41.1938 15.0314 39.6792C15.0314 38.1646 14.9188 37.8564 13.8052 37.8564C12.6916 37.8564 12.5053 38.1646 12.5053 39.6792Z" fill="#1D5798"/>
<path d="M25.6605 39.6792C25.6605 42.5478 25.0365 43.2378 22.0034 43.2378C18.9702 43.2378 18.3593 42.4697 18.3593 39.6792C18.3593 36.8887 18.9572 36.1031 22.0034 36.1031C25.0495 36.1031 25.6605 36.7281 25.6605 39.6792ZM20.7511 39.6792C20.7511 41.1938 20.8941 41.4846 22.051 41.4846C23.208 41.4846 23.273 41.1938 23.273 39.6792C23.273 38.1646 23.1646 37.8564 22.051 37.8564C20.9374 37.8564 20.7511 38.1646 20.7511 39.6792Z" fill="#1D5798"/>
<path d="M26.8997 36.1856H29.2915L29.2352 37.2879H29.3478C29.6252 36.3418 30.3921 36.1031 31.4364 36.1031C33.1999 36.1031 34.2009 36.8236 34.2009 38.668V40.2607C34.2009 42.3872 33.4383 43.2378 31.4364 43.2378C30.5698 43.2378 29.7941 43.0643 29.4042 42.1095H29.2915V46.1759H26.8997V36.1856ZM29.2915 39.6575C29.2915 40.8249 29.3782 41.4629 30.4874 41.4629C31.4754 41.4629 31.809 41.2372 31.809 39.6575C31.809 38.2991 31.7527 37.8347 30.4874 37.8347C29.4735 37.8347 29.2915 38.1819 29.2915 39.6575Z" fill="#1D5798"/>
<path d="M42.2865 40.8336C42.2865 41.8838 41.9225 42.4827 41.2985 42.8256C40.6746 43.1684 39.782 43.2596 38.7247 43.2596C35.8432 43.2596 35.1499 42.3048 35.1499 39.7009C35.1499 37.0145 35.7869 36.1248 38.7247 36.1248C41.4632 36.1248 42.2865 36.8539 42.2865 39.7009V40.0828H37.5418C37.5418 41.3066 37.7367 41.6668 38.7247 41.6668C39.4613 41.6668 39.9336 41.5887 39.9336 40.8553L42.2865 40.8336ZM39.8903 38.8025C39.8903 37.7653 39.4873 37.7002 38.6814 37.7002C37.8754 37.7002 37.5678 37.8825 37.5418 38.8025H39.8903Z" fill="#1D5798"/>
<path d="M47.3734 38.8937C47.3734 38.4033 47.4037 37.8564 46.7494 37.8564C46.0258 37.8564 45.8568 38.4033 45.8568 38.9761V43.1597H43.465V36.1856H45.7875V37.2055H45.8871C46.2078 36.4113 46.8318 36.1031 47.7244 36.1031C49.3926 36.1031 49.5313 37.4051 49.5313 38.681V39.2278H47.3647L47.3734 38.8937Z" fill="#1D5798"/>
<path d="M82.2416 43.1597H79.5898V39.2539H76.1277V43.1597H73.4758V33.1955H76.1277V36.9408H79.5898V33.1955H82.2416V43.1597Z" fill="#D8282F"/>
<path d="M88.2256 43.1597L88.3036 41.8187H88.1996C87.879 42.895 87.086 43.2379 86.1154 43.2379C84.7375 43.2379 83.7539 42.652 83.7539 40.9551V36.1813H86.0374V40.3519C86.0374 40.9898 86.1024 41.4932 86.8737 41.4932C87.4804 41.4932 88.1736 41.1764 88.1736 40.4821V36.1856H90.4528V43.1597H88.2256Z" fill="#D8282F"/>
<path d="M94.2746 36.1856V37.4876H94.3873C94.7209 36.3896 95.3969 36.1075 96.4715 36.1075C98.0141 36.1075 98.716 36.8409 98.716 38.3425V43.1641H96.4325V38.872C96.4325 38.195 96.2332 37.8608 95.4922 37.8608C94.4696 37.8608 94.2963 38.4727 94.2963 39.3233V43.1641H92.0171V36.1856H94.2746Z" fill="#D8282F"/>
<path d="M105.406 37.8565H102.767V40.9811C102.767 41.4151 102.858 41.567 103.283 41.567C103.881 41.567 103.855 41.133 103.881 40.66V40.2911H105.701V40.916C105.701 42.8126 104.995 43.2379 103.136 43.2379C101.68 43.2379 100.471 43.0556 100.471 41.2979V37.8565H99.6042V36.1856H100.471V34.7101H102.754V36.1856H105.393L105.406 37.8565Z" fill="#D8282F"/>
<path d="M113.089 40.8336C113.089 41.8838 112.742 42.4827 112.144 42.8256C111.374 43.1671 110.532 43.316 109.692 43.2596C106.944 43.2596 106.281 42.3048 106.281 39.7009C106.281 37.0145 106.892 36.1248 109.692 36.1248C112.291 36.1248 113.089 36.8539 113.089 39.7009V40.0828H108.561C108.561 41.3066 108.751 41.6668 109.692 41.6668C110.394 41.6668 110.844 41.5887 110.844 40.8553L113.089 40.8336ZM110.805 38.8025C110.805 37.7653 110.42 37.7002 109.653 37.7002C108.886 37.7002 108.591 37.8825 108.561 38.8025H110.805Z" fill="#D8282F"/>
<path d="M117.942 38.8937C117.942 38.4033 117.968 37.8564 117.344 37.8564C116.655 37.8564 116.477 38.4033 116.477 38.9761V43.1597H114.198V36.1856H116.412V37.2055H116.508C116.632 36.854 116.87 36.5545 117.184 36.3546C117.498 36.1548 117.87 36.0663 118.241 36.1032C119.831 36.1032 119.974 37.4051 119.974 38.681V39.2278H117.916L117.942 38.8937Z" fill="#D8282F"/>
<path d="M0.303345 49.3961C0.303345 48.246 0.957638 47.9726 2.03657 47.9726H3.47082C5.20404 47.9726 5.4337 48.3415 5.4207 49.4569H4.20311V49.3484C4.20311 49.0663 3.99512 48.9838 3.63115 48.9838H2.30089C1.6596 48.9838 1.53827 49.2833 1.53827 49.7737V50.2076C1.53827 50.7762 1.6596 50.9932 2.2359 50.9932H3.53582C4.08612 50.9932 4.25077 50.9411 4.25077 50.4507H5.46836V50.8196C5.46836 51.4836 5.23005 52.0087 4.00379 52.0087H2.03657C0.940306 52.0087 0.303345 51.7353 0.303345 50.5809V49.3961ZM42.6418 48.016H47.2911V48.9968H45.5579V51.9566H44.3403V48.9968H42.6071L42.6418 48.016ZM36.1422 48.016H39.8209C40.7612 48.016 41.0125 48.4761 41.0125 49.1834V49.4352C41.0125 49.9646 40.8912 50.2727 40.3322 50.4029C40.6919 50.468 40.9952 50.6243 40.9952 51.2709V51.9436H39.7906V51.4662C39.7906 51.0539 39.6693 50.9194 39.288 50.9194H37.3727V51.9436H36.1552L36.1422 48.016ZM37.3597 49.9516H39.3573C39.6866 49.9516 39.7906 49.8214 39.7906 49.5176V49.3874C39.7906 49.0402 39.6173 48.9534 39.2316 48.9534H37.3251L37.3597 49.9516ZM28.8496 49.3961C28.8496 48.246 29.5039 47.9726 30.5828 47.9726H32.537C33.6376 47.9726 34.2703 48.246 34.2703 49.3961V50.5722C34.2703 51.7266 33.616 52 32.537 52H30.5828C29.4866 52 28.8496 51.7266 28.8496 50.5722V49.3961ZM30.1019 50.199C30.1019 50.7675 30.2232 50.9845 30.7995 50.9845H32.3594C32.9357 50.9845 33.057 50.7675 33.057 50.199V49.765C33.057 49.2746 32.9357 48.9751 32.2901 48.9751H30.8645C30.2232 48.9751 30.1019 49.2746 30.1019 49.765V50.199ZM22.9523 48.029H27.1034V48.9751H24.1916V49.7086H26.9864V50.6243H24.1916V51.9696H22.974L22.9523 48.029ZM14.5288 48.029H16.392L17.7699 50.5635L19.1479 48.029H21.0197V51.9696H19.8585V49.14L18.2596 51.9696H17.3496L15.7507 49.14V51.9696H14.5288V48.029ZM7.23192 49.4091C7.23192 48.2591 7.88622 47.9856 8.96515 47.9856H10.9194C12.0156 47.9856 12.6526 48.2591 12.6526 49.4091V50.5852C12.6526 51.7396 11.9983 52.013 10.9194 52.013H8.96515C7.86455 52.013 7.23192 51.7396 7.23192 50.5852V49.4091ZM8.48418 50.212C8.48418 50.7805 8.60551 50.9975 9.1818 50.9975H10.759C11.3353 50.9975 11.4567 50.7805 11.4567 50.212V49.778C11.4567 49.2876 11.3353 48.9881 10.694 48.9881H9.26847C8.62284 48.9881 8.50151 49.2876 8.50151 49.778L8.48418 50.212Z" fill="#575756"/>
<path d="M52.7898 48.016H54.0074V51.9566H52.7898V48.016ZM114.67 50.6633H115.892C115.892 51.0973 116.066 51.119 116.421 51.119H117.911C118.171 51.119 118.436 51.0886 118.436 50.7848C118.436 50.4811 118.293 50.4203 116.703 50.4203C114.87 50.4203 114.662 50.2033 114.662 49.2355C114.662 48.5238 114.727 47.9726 116.265 47.9726H117.968C119.372 47.9726 119.506 48.4457 119.506 49.1357V49.2616H118.284C118.284 48.9751 118.254 48.8536 117.69 48.8536H116.343C116.066 48.8536 115.879 48.9447 115.879 49.1574C115.879 49.5002 116.027 49.5133 117.335 49.5046C119.229 49.5046 119.671 49.6174 119.671 50.7631C119.671 51.8264 119.307 52 117.686 52H116.209C115.099 52 114.653 51.7917 114.653 50.9367L114.67 50.6633ZM107.412 48.016H109.302L111.594 50.876V48.016H112.811V51.9566H110.94L108.652 49.0923V51.9566H107.434L107.412 48.016ZM100.12 49.3961C100.12 48.246 100.774 47.9726 101.853 47.9726H103.807C104.908 47.9726 105.562 48.246 105.562 49.3961V50.5722C105.562 51.7266 104.908 52 103.807 52H101.853C100.757 52 100.12 51.7266 100.12 50.5722V49.3961ZM101.372 50.199C101.372 50.7675 101.493 50.9845 102.07 50.9845H103.63C104.206 50.9845 104.327 50.7675 104.327 50.199V49.765C104.327 49.2746 104.206 48.9751 103.565 48.9751H102.135C101.493 48.9751 101.372 49.2746 101.372 49.765V50.199ZM97.0001 48.029H98.222V51.9696H97.0001V48.029ZM90.6565 48.029H95.3059V49.0098H93.5726V51.9696H92.355V49.0098H90.6218L90.6565 48.029ZM86.0504 48.029H87.6363L89.8245 51.9696H88.4683L88.087 51.2709H85.6171L85.2618 51.9696H83.8969L86.0504 48.029ZM86.0721 50.4246H87.632L86.8434 48.9448L86.0721 50.4246ZM77.4883 48.016H78.8229L80.3741 50.9411L81.9297 48.016H83.2643L81.1281 51.9566H79.6245L77.4883 48.016ZM70.577 49.3961C70.577 48.246 71.2313 47.9726 72.3319 47.9726H74.2861C75.3824 47.9726 76.0194 48.246 76.0194 49.3961V50.5722C76.0194 51.7266 75.3651 52 74.2861 52H72.3319C71.2313 52 70.577 51.7266 70.577 50.5722V49.3961ZM71.8293 50.199C71.8293 50.7675 71.9506 50.9845 72.5269 50.9845H74.0868C74.6631 50.9845 74.7845 50.7675 74.7845 50.199V49.765C74.7845 49.2746 74.6631 48.9751 74.0218 48.9751H72.5919C71.9506 48.9751 71.8293 49.2746 71.8293 49.765V50.199ZM63.3365 48.029H65.2257L67.5136 50.889V48.029H68.7312V51.9696H66.8419L64.5541 49.1053V51.9696H63.3365V48.029ZM56.0049 48.029H57.8941L60.182 50.889V48.029H61.3996V51.9696H59.5104L57.2225 49.1053V51.9696H56.0049V48.029Z" fill="#575756"/>
</g>
<defs>
<clipPath id="clip0_709_2831">
<rect width="120" height="52" fill="white"/>
</clipPath>
</defs>
</svg>
