<svg width="130" height="30" viewBox="0 0 130 30" fill="none" xmlns="http://www.w3.org/2000/svg">
<path d="M46.3635 28.6801H38.6805V18.5135L29.953 0.739182H38.551L42.5867 10.2074L46.6224 0.739182H55.0862L46.3635 18.3581V28.6801Z" fill="#191518"/>
<path d="M76.5683 14.5523C76.5683 24.0629 71.1986 29.4169 64.2626 29.4169C56.9044 29.4169 51.9891 23.9836 51.9891 14.477C51.9891 5.70477 56.9696 -0.000793457 64.2626 -0.000793457C72.6275 -0.000793457 76.5683 7.17845 76.5683 14.5523ZM59.6705 14.5523C59.6705 18.1243 60.5831 22.5861 64.2626 22.5861C67.5827 22.5861 68.8869 19.1718 68.8869 14.5523C68.8869 10.7488 67.5827 6.71625 64.1975 6.83082C60.7142 6.83082 59.6705 11.0227 59.6705 14.5523Z" fill="#191518"/>
<path d="M85.6434 18.9396V28.6769H77.9572V0.741531H89.0301C96.8419 0.741531 99.4125 3.26749 99.4125 8.69841C99.4125 11.9157 98.2104 14.6347 95.4741 15.5253C97.9491 16.6106 99.4447 17.3105 99.4447 22.936C99.4447 26.5841 99.3498 27.8271 100.259 27.8271V28.6769H92.4797C92.2835 28.0539 92.0873 26.271 92.0873 23.7882C92.0873 20.1378 91.5663 18.9364 87.9834 18.9364L85.6434 18.9396ZM85.6434 12.8079H88.67C91.0453 12.8079 92.3157 12.1103 92.3157 10.1689C92.3157 8.18914 91.0154 7.25691 89.2224 7.25691H85.6434V12.8079Z" fill="#191518"/>
<path d="M101.882 0.739182H109.565V9.78287L116.302 0.739182H125.323L116.762 11.2573L126.232 28.6801H117.02L111.386 17.5436L109.565 19.8325V28.6801H101.882V0.739182Z" fill="#191518"/>
<path d="M128.129 4.23268C127.76 4.23252 127.398 4.1228 127.091 3.91739C126.784 3.71198 126.544 3.4201 126.403 3.07863C126.262 2.73716 126.225 2.36144 126.297 1.99896C126.369 1.63647 126.547 1.30349 126.808 1.0421C127.069 0.780708 127.402 0.60264 127.765 0.530405C128.127 0.458169 128.503 0.495006 128.844 0.636261C129.186 0.777516 129.478 1.01685 129.683 1.32401C129.889 1.63116 129.999 1.99236 129.999 2.36195C130 2.6077 129.952 2.85112 129.858 3.07827C129.764 3.30542 129.626 3.51182 129.453 3.68563C129.279 3.85943 129.072 3.99723 128.845 4.0911C128.618 4.18498 128.375 4.23309 128.129 4.23268ZM128.129 0.701517C127.802 0.701672 127.481 0.798958 127.209 0.981072C126.937 1.16319 126.725 1.42195 126.599 1.72465C126.474 2.02735 126.441 2.36039 126.505 2.68167C126.569 3.00295 126.727 3.29804 126.959 3.52963C127.191 3.76122 127.486 3.9189 127.807 3.98276C128.128 4.04661 128.461 4.01376 128.764 3.88836C129.067 3.76296 129.325 3.55064 129.507 3.27825C129.689 3.00585 129.786 2.68561 129.786 2.35802C129.787 2.14036 129.744 1.9248 129.661 1.72368C129.577 1.52256 129.455 1.33983 129.301 1.18596C129.147 1.03209 128.965 0.910095 128.764 0.826967C128.562 0.743839 128.347 0.701207 128.129 0.701517ZM127.434 1.27121H128.355C128.675 1.27121 128.983 1.33242 129.01 1.79931C129.022 2.06533 128.94 2.1642 128.742 2.31565C128.952 2.44905 128.958 2.48201 128.988 2.8414C129.01 3.11212 128.972 3.15528 129.09 3.33498H128.776L128.733 3.07367C128.69 2.8312 128.812 2.44591 128.381 2.44591H127.697V3.3389H127.432L127.434 1.27121ZM127.698 1.50662V2.21285H128.361C128.537 2.21285 128.713 2.16342 128.742 1.89897C128.779 1.54507 128.525 1.50662 128.361 1.50662H127.698Z" fill="#191518"/>
<path d="M27.9524 0.793335H0.00292969V28.7436H27.9524V0.793335Z" fill="#005BA2"/>
<path d="M18.9822 12.3677L18.1826 11.0337L15.2643 12.7828L11.5055 10.6288L15.2588 8.45359L18.148 10.1438L18.9328 8.80357L16.8007 7.55432L18.7483 6.42356L17.7063 4.6831L15.7516 5.81935L15.7202 3.28241L14.1665 3.30595L14.2245 6.71077L10.5364 8.8585V4.54264L13.3818 2.89476L12.5884 1.56077L10.5388 2.72841V0.80275H8.45149V5.0574C7.9702 5.14889 7.50245 5.30103 7.05943 5.51018L4.42047 1.88014L2.73179 3.10506L5.37232 6.74137C5.03981 7.09079 4.75342 7.48135 4.52013 7.90352L0.204269 6.50204L0.0018158 7.16668V8.61995L3.86883 9.89116C3.80787 10.3623 3.80234 10.839 3.85235 11.3115L0.00730809 12.5568V14.2423L0.158756 14.7069L4.47462 13.3062C4.69443 13.7262 4.96624 14.117 5.28364 14.4691L2.59996 18.1572L4.29021 19.3853L6.94329 15.7293C7.41638 15.9724 7.92232 16.1452 8.44521 16.2425V20.7569H10.5325L10.5278 18.4946L12.7399 19.7353L13.5003 18.3761L10.5262 16.7346L10.5302 12.4054L14.2732 14.5523L14.2504 17.9038L15.8057 17.9124L15.8206 15.4421L17.7722 16.5635L18.7617 14.7877L16.7999 13.664L18.9822 12.3677ZM8.44521 14.0258C7.03981 13.6946 5.85569 12.352 5.85569 10.6515C5.85569 8.95109 7.03275 7.61003 8.44521 7.27732V14.0258Z" fill="#F4F7FF"/>
</svg>
